<svg width="160" height="40" viewBox="0 0 160 40" fill="none" xmlns="http://www.w3.org/2000/svg">
  <path d="M10 8H15C17.7614 8 20 10.2386 20 13V13C20 15.7614 17.7614 18 15 18H10V8Z" fill="white"/>
  <path d="M10 20H15C17.7614 20 20 22.2386 20 25V25C20 27.7614 17.7614 30 15 30H10V20Z" fill="white"/>
  <path d="M25 8H30V30H25V8Z" fill="white"/>
  <path d="M35 8C37.7614 8 40 10.2386 40 13V25C40 27.7614 37.7614 30 35 30H32V8H35ZM35 25V13H35V25H35Z" fill="white"/>
  <path d="M45 8C47.7614 8 50 10.2386 50 13V25C50 27.7614 47.7614 30 45 30H42V8H45ZM45 25V13H45V25H45Z" fill="white"/>
  <path d="M55 8H60L65 17L70 8H75V30H70V15L65 24L60 15V30H55V8Z" fill="white"/>
  <path d="M80 8H85C87.7614 8 90 10.2386 90 13V25C90 27.7614 87.7614 30 85 30H80V8ZM85 25V13H83V25H85Z" fill="white"/>
  <path d="M95 8H100V17H103V8H108V30H103V22H100V30H95V8Z" fill="white"/>
  <path d="M115 8C117.761 8 120 10.2386 120 13V25C120 27.7614 117.761 30 115 30H110V8H115ZM115 25V13H113V25H115Z" fill="white"/>
  <path d="M125 8H138V13H130V16H135V21H130V25H138V30H125V8Z" fill="white"/>
  <path d="M145 8H150V17H153V8H158V30H153V22H150V30H145V8Z" fill="white"/>
</svg>