<svg width="120" height="40" viewBox="0 0 120 40" fill="none" xmlns="http://www.w3.org/2000/svg">
  <path d="M10 8H15C17.7614 8 20 10.2386 20 13V25C20 27.7614 17.7614 30 15 30H10V8ZM15 25V13H13V25H15Z" fill="white"/>
  <path d="M25 8H30L35 17L40 8H45V30H40V15L35 24L30 15V30H25V8Z" fill="white"/>
  <path d="M50 8H55C57.7614 8 60 10.2386 60 13V13C60 15.7614 57.7614 18 55 18H50V8Z" fill="white"/>
  <path d="M50 20H55C57.7614 20 60 22.2386 60 25V25C60 27.7614 57.7614 30 55 30H50V20Z" fill="white"/>
  <path d="M65 8H70C72.7614 8 75 10.2386 75 13V25C75 27.7614 72.7614 30 70 30H65V8ZM70 25V13H68V25H70Z" fill="white"/>
</svg>