<svg width="400" height="300" viewBox="0 0 400 300" fill="none" xmlns="http://www.w3.org/2000/svg">
  <!-- Background -->
  <rect width="400" height="300" fill="url(#paint0_linear)" />
  
  <!-- Decorative elements -->
  <circle cx="200" cy="150" r="100" fill="url(#paint1_radial)" opacity="0.3" />
  <path d="M50 50 L350 250" stroke="rgba(255,255,255,0.1)" stroke-width="2" />
  <path d="M350 50 L50 250" stroke="rgba(255,255,255,0.1)" stroke-width="2" />
  
  <!-- Community illustration -->
  <!-- Person 1 (center) -->
  <circle cx="200" cy="150" r="30" fill="#4F46E5" opacity="0.8" />
  <circle cx="200" cy="135" r="12" fill="white" />
  <path d="M180 170 C180 155 220 155 220 170 L220 180 L180 180 L180 170" fill="white" />
  
  <!-- Person 2 (left) -->
  <circle cx="140" cy="170" r="25" fill="#3B82F6" opacity="0.8" />
  <circle cx="140" cy="158" r="10" fill="white" />
  <path d="M123 185 C123 173 157 173 157 185 L157 195 L123 195 L123 185" fill="white" />
  
  <!-- Person 3 (right) -->
  <circle cx="260" cy="170" r="25" fill="#8B5CF6" opacity="0.8" />
  <circle cx="260" cy="158" r="10" fill="white" />
  <path d="M243 185 C243 173 277 173 277 185 L277 195 L243 195 L243 185" fill="white" />
  
  <!-- Connection lines -->
  <line x1="175" y1="150" x2="155" y2="160" stroke="white" stroke-width="2" opacity="0.6" />
  <line x1="225" y1="150" x2="245" y2="160" stroke="white" stroke-width="2" opacity="0.6" />
  
  <!-- Chat bubbles -->
  <rect x="120" y="100" width="60" height="30" rx="15" fill="#3B82F6" opacity="0.8" />
  <rect x="220" y="90" width="70" height="30" rx="15" fill="#8B5CF6" opacity="0.8" />
  <rect x="180" y="70" width="50" height="30" rx="15" fill="#4F46E5" opacity="0.8" />
  
  <!-- Gradients -->
  <defs>
    <linearGradient id="paint0_linear" x1="0" y1="0" x2="400" y2="300" gradientUnits="userSpaceOnUse">
      <stop stop-color="#4338CA" />
      <stop offset="1" stop-color="#3730A3" />
    </linearGradient>
    <radialGradient id="paint1_radial" cx="0" cy="0" r="1" gradientUnits="userSpaceOnUse" gradientTransform="translate(200 150) rotate(90) scale(100)">
      <stop stop-color="white" />
      <stop offset="1" stop-color="white" stop-opacity="0" />
    </radialGradient>
  </defs>
</svg>