<svg width="1200" height="675" viewBox="0 0 1200 675" fill="none" xmlns="http://www.w3.org/2000/svg">
  <!-- Background -->
  <rect width="1200" height="675" rx="12" fill="#1F2937"/>
  
  <!-- Dashboard Header -->
  <rect x="40" y="40" width="1120" height="80" rx="8" fill="#111827"/>
  <circle cx="80" cy="80" r="20" fill="#10B981"/>
  
  <!-- Navigation -->
  <rect x="200" y="65" width="60" height="10" rx="5" fill="#F9FAFB"/>
  <rect x="300" y="65" width="80" height="10" rx="5" fill="#6B7280"/>
  <rect x="420" y="65" width="70" height="10" rx="5" fill="#6B7280"/>
  <rect x="530" y="65" width="60" height="10" rx="5" fill="#6B7280"/>
  
  <!-- User Menu -->
  <circle cx="1100" cy="80" r="20" fill="#374151"/>
  <rect x="1020" y="75" width="40" height="10" rx="5" fill="#6B7280"/>
  
  <!-- Main Content -->
  <rect x="40" y="160" width="700" height="475" rx="8" fill="#111827"/>
  
  <!-- Chart -->
  <rect x="60" y="200" width="660" height="300" rx="4" fill="#1F2937"/>
  
  <!-- Chart Title -->
  <rect x="60" y="170" width="150" height="15" rx="4" fill="#F9FAFB"/>
  
  <!-- Chart Lines -->
  <path d="M60 450 L720 450" stroke="#374151" stroke-width="1"/>
  <path d="M60 400 L720 400" stroke="#374151" stroke-width="1"/>
  <path d="M60 350 L720 350" stroke="#374151" stroke-width="1"/>
  <path d="M60 300 L720 300" stroke="#374151" stroke-width="1"/>
  <path d="M60 250 L720 250" stroke="#374151" stroke-width="1"/>
  
  <!-- Chart Data -->
  <path d="M80 400 L140 380 L200 420 L260 350 L320 370 L380 320 L440 280 L500 300 L560 260 L620 240 L680 270 L700 250" stroke="#10B981" stroke-width="3" fill="none"/>
  
  <!-- Chart Labels -->
  <rect x="80" y="460" width="20" height="8" rx="4" fill="#6B7280"/>
  <rect x="140" y="460" width="20" height="8" rx="4" fill="#6B7280"/>
  <rect x="200" y="460" width="20" height="8" rx="4" fill="#6B7280"/>
  <rect x="260" y="460" width="20" height="8" rx="4" fill="#6B7280"/>
  <rect x="320" y="460" width="20" height="8" rx="4" fill="#6B7280"/>
  <rect x="380" y="460" width="20" height="8" rx="4" fill="#6B7280"/>
  <rect x="440" y="460" width="20" height="8" rx="4" fill="#6B7280"/>
  <rect x="500" y="460" width="20" height="8" rx="4" fill="#6B7280"/>
  <rect x="560" y="460" width="20" height="8" rx="4" fill="#6B7280"/>
  <rect x="620" y="460" width="20" height="8" rx="4" fill="#6B7280"/>
  <rect x="680" y="460" width="20" height="8" rx="4" fill="#6B7280"/>
  
  <!-- Stats Cards -->
  <rect x="60" y="520" width="210" height="100" rx="8" fill="#1F2937"/>
  <rect x="80" y="540" width="100" height="12" rx="6" fill="#6B7280"/>
  <rect x="80" y="570" width="60" height="20" rx="4" fill="#10B981"/>
  <rect x="80" y="600" width="120" height="8" rx="4" fill="#374151"/>
  
  <rect x="290" y="520" width="210" height="100" rx="8" fill="#1F2937"/>
  <rect x="310" y="540" width="100" height="12" rx="6" fill="#6B7280"/>
  <rect x="310" y="570" width="60" height="20" rx="4" fill="#EF4444"/>
  <rect x="310" y="600" width="120" height="8" rx="4" fill="#374151"/>
  
  <rect x="520" y="520" width="210" height="100" rx="8" fill="#1F2937"/>
  <rect x="540" y="540" width="100" height="12" rx="6" fill="#6B7280"/>
  <rect x="540" y="570" width="60" height="20" rx="4" fill="#10B981"/>
  <rect x="540" y="600" width="120" height="8" rx="4" fill="#374151"/>
  
  <!-- Sidebar -->
  <rect x="780" y="160" width="380" height="475" rx="8" fill="#111827"/>
  
  <!-- Sidebar Title -->
  <rect x="800" y="180" width="120" height="15" rx="4" fill="#F9FAFB"/>
  
  <!-- Watchlist -->
  <rect x="800" y="220" width="340" height="60" rx="8" fill="#1F2937"/>
  <rect x="820" y="240" width="80" height="10" rx="5" fill="#F9FAFB"/>
  <rect x="820" y="260" width="40" height="10" rx="5" fill="#6B7280"/>
  <rect x="1080" y="245" width="40" height="10" rx="5" fill="#10B981"/>
  
  <rect x="800" y="290" width="340" height="60" rx="8" fill="#1F2937"/>
  <rect x="820" y="310" width="80" height="10" rx="5" fill="#F9FAFB"/>
  <rect x="820" y="330" width="40" height="10" rx="5" fill="#6B7280"/>
  <rect x="1080" y="315" width="40" height="10" rx="5" fill="#EF4444"/>
  
  <rect x="800" y="360" width="340" height="60" rx="8" fill="#1F2937"/>
  <rect x="820" y="380" width="80" height="10" rx="5" fill="#F9FAFB"/>
  <rect x="820" y="400" width="40" height="10" rx="5" fill="#6B7280"/>
  <rect x="1080" y="385" width="40" height="10" rx="5" fill="#10B981"/>
  
  <!-- News Feed -->
  <rect x="800" y="450" width="340" height="15" rx="4" fill="#F9FAFB"/>
  
  <rect x="800" y="480" width="340" height="40" rx="4" fill="#1F2937"/>
  <rect x="820" y="490" width="200" height="8" rx="4" fill="#6B7280"/>
  <rect x="820" y="505" width="100" height="6" rx="3" fill="#374151"/>
  
  <rect x="800" y="530" width="340" height="40" rx="4" fill="#1F2937"/>
  <rect x="820" y="540" width="200" height="8" rx="4" fill="#6B7280"/>
  <rect x="820" y="555" width="100" height="6" rx="3" fill="#374151"/>
  
  <rect x="800" y="580" width="340" height="40" rx="4" fill="#1F2937"/>
  <rect x="820" y="590" width="200" height="8" rx="4" fill="#6B7280"/>
  <rect x="820" y="605" width="100" height="6" rx="3" fill="#374151"/>
</svg>