<svg width="400" height="300" viewBox="0 0 400 300" fill="none" xmlns="http://www.w3.org/2000/svg">
  <!-- Background -->
  <rect width="400" height="300" fill="url(#paint0_linear)" />
  
  <!-- Decorative elements -->
  <circle cx="200" cy="150" r="100" fill="url(#paint1_radial)" opacity="0.3" />
  <path d="M50 50 L350 250" stroke="rgba(255,255,255,0.1)" stroke-width="2" />
  <path d="M350 50 L50 250" stroke="rgba(255,255,255,0.1)" stroke-width="2" />
  
  <!-- Registration form illustration -->
  <rect x="120" y="80" width="160" height="180" rx="8" fill="#1E293B" stroke="#3B82F6" stroke-width="2" />
  <rect x="140" y="100" width="120" height="20" rx="4" fill="#334155" />
  <rect x="140" y="130" width="120" height="20" rx="4" fill="#334155" />
  <rect x="140" y="160" width="120" height="20" rx="4" fill="#334155" />
  <rect x="140" y="200" width="80" height="30" rx="4" fill="#3B82F6" />
  
  <!-- User icon -->
  <circle cx="200" cy="50" r="20" fill="#3B82F6" opacity="0.8" />
  <path d="M200 40 A8 8 0 0 1 208 48 A8 8 0 0 1 200 56 A8 8 0 0 1 192 48 A8 8 0 0 1 200 40" fill="white" />
  <path d="M185 70 C185 60 215 60 215 70 L215 75 L185 75 L185 70" fill="white" />
  
  <!-- Gradients -->
  <defs>
    <linearGradient id="paint0_linear" x1="0" y1="0" x2="400" y2="300" gradientUnits="userSpaceOnUse">
      <stop stop-color="#1E40AF" />
      <stop offset="1" stop-color="#1E3A8A" />
    </linearGradient>
    <radialGradient id="paint1_radial" cx="0" cy="0" r="1" gradientUnits="userSpaceOnUse" gradientTransform="translate(200 150) rotate(90) scale(100)">
      <stop stop-color="white" />
      <stop offset="1" stop-color="white" stop-opacity="0" />
    </radialGradient>
  </defs>
</svg>