<svg width="160" height="40" viewBox="0 0 160 40" fill="none" xmlns="http://www.w3.org/2000/svg">
  <path d="M10 8H15V30H10V8Z" fill="white"/>
  <path d="M20 8H35V13H30V30H25V13H20V8Z" fill="white"/>
  <path d="M40 8H45V17H50V8H55V30H50V22H45V30H40V8Z" fill="white"/>
  <path d="M65 8C67.7614 8 70 10.2386 70 13V25C70 27.7614 67.7614 30 65 30H60V8H65ZM65 25V13H63V25H65Z" fill="white"/>
  <path d="M75 8H80V17H83V8H88V30H83V22H80V30H75V8Z" fill="white"/>
  <path d="M95 8C97.7614 8 100 10.2386 100 13V25C100 27.7614 97.7614 30 95 30H90V8H95ZM95 25V13H93V25H95Z" fill="white"/>
  <path d="M105 8H110V17H113V8H118V30H113V22H110V30H105V8Z" fill="white"/>
  <path d="M125 8C127.761 8 130 10.2386 130 13V25C130 27.7614 127.761 30 125 30H120V8H125ZM125 25V13H123V25H125Z" fill="white"/>
  <path d="M135 8H140V30H135V8Z" fill="white"/>
  <path d="M145 8H150V30H145V8Z" fill="white"/>
</svg>