<svg width="200" height="200" viewBox="0 0 200 200" fill="none" xmlns="http://www.w3.org/2000/svg">
  <circle cx="100" cy="100" r="100" fill="#1F2937"/>
  <circle cx="100" cy="85" r="40" fill="#374151"/>
  <path d="M100 135C77.9086 135 60 152.909 60 175H140C140 152.909 122.091 135 100 135Z" fill="#374151"/>
  <circle cx="100" cy="85" r="35" fill="#4B5563"/>
  <path d="M100 130C80.67 130 65 145.67 65 165H135C135 145.67 119.33 130 100 130Z" fill="#4B5563"/>
  <path d="M80 75H120V95H80V75Z" fill="#6B7280"/>
  <path d="M90 95H110V110C110 115.523 105.523 120 100 120C94.4772 120 90 115.523 90 110V95Z" fill="#6B7280"/>
</svg>