<svg width="200" height="200" viewBox="0 0 200 200" fill="none" xmlns="http://www.w3.org/2000/svg">
  <circle cx="100" cy="100" r="100" fill="#1F2937"/>
  <circle cx="100" cy="85" r="40" fill="#374151"/>
  <path d="M100 135C77.9086 135 60 152.909 60 175H140C140 152.909 122.091 135 100 135Z" fill="#374151"/>
  <circle cx="100" cy="85" r="35" fill="#4B5563"/>
  <path d="M100 130C80.67 130 65 145.67 65 165H135C135 145.67 119.33 130 100 130Z" fill="#4B5563"/>
  <path d="M80 75C80 72.2386 82.2386 70 85 70H115C117.761 70 120 72.2386 120 75V85C120 87.7614 117.761 90 115 90H85C82.2386 90 80 87.7614 80 85V75Z" fill="#6B7280"/>
  <rect x="90" y="90" width="20" height="30" rx="10" fill="#6B7280"/>
</svg>