<svg width="200" height="200" viewBox="0 0 200 200" fill="none" xmlns="http://www.w3.org/2000/svg">
  <circle cx="100" cy="100" r="100" fill="#1F2937"/>
  <circle cx="100" cy="85" r="40" fill="#374151"/>
  <path d="M100 135C77.9086 135 60 152.909 60 175H140C140 152.909 122.091 135 100 135Z" fill="#374151"/>
  <circle cx="100" cy="85" r="35" fill="#4B5563"/>
  <path d="M100 130C80.67 130 65 145.67 65 165H135C135 145.67 119.33 130 100 130Z" fill="#4B5563"/>
  <path d="M85 80C85 77.2386 87.2386 75 90 75H110C112.761 75 115 77.2386 115 80V90C115 92.7614 112.761 95 110 95H90C87.2386 95 85 92.7614 85 90V80Z" fill="#6B7280"/>
  <path d="M90 105H110V110C110 115.523 105.523 120 100 120C94.4772 120 90 115.523 90 110V105Z" fill="#6B7280"/>
</svg>