<?xml version="1.0" standalone="no"?>
<!DOCTYPE svg PUBLIC "-//W3C//DTD SVG 20010904//EN"
 "http://www.w3.org/TR/2001/REC-SVG-20010904/DTD/svg10.dtd">
<svg version="1.0" xmlns="http://www.w3.org/2000/svg"
 width="1024.000000pt" height="1024.000000pt" viewBox="0 0 1024.000000 1024.000000"
 preserveAspectRatio="xMidYMid meet">

<g transform="translate(0.000000,1024.000000) scale(0.100000,-0.100000)"
fill="#000000" stroke="none">
<path d="M6786 8940 c3 -14 10 -32 15 -40 7 -13 8 -13 8 0 0 8 -6 26 -15 40
l-15 25 7 -25z"/>
<path d="M3249 8813 c-13 -16 -12 -17 4 -4 9 7 17 15 17 17 0 8 -8 3 -21 -13z"/>
<path d="M6831 8794 c0 -11 3 -14 6 -6 3 7 2 16 -1 19 -3 4 -6 -2 -5 -13z"/>
<path d="M3203 8768 c-29 -33 -34 -45 -18 -45 8 0 12 4 9 9 -4 5 4 20 17 34
12 13 20 24 17 24 -2 0 -14 -10 -25 -22z"/>
<path d="M6840 8765 c0 -5 5 -17 10 -25 5 -8 10 -10 10 -5 0 6 -5 17 -10 25
-5 8 -10 11 -10 5z"/>
<path d="M6860 8715 c0 -5 5 -17 10 -25 5 -8 10 -10 10 -5 0 6 -5 17 -10 25
-5 8 -10 11 -10 5z"/>
<path d="M3110 8650 c-12 -16 -19 -30 -16 -30 2 0 14 14 26 30 12 17 19 30 16
30 -2 0 -14 -13 -26 -30z"/>
<path d="M6920 8590 c11 -22 23 -40 25 -40 3 0 -4 18 -15 40 -11 22 -23 40
-25 40 -3 0 4 -18 15 -40z"/>
<path d="M3065 8579 c-4 -6 -5 -12 -2 -15 2 -3 7 2 10 11 7 17 1 20 -8 4z"/>
<path d="M3220 8580 c0 -5 5 -10 11 -10 5 0 7 5 4 10 -3 6 -8 10 -11 10 -2 0
-4 -4 -4 -10z"/>
<path d="M7451 8534 c0 -11 3 -14 6 -6 3 7 2 16 -1 19 -3 4 -6 -2 -5 -13z"/>
<path d="M2661 8499 c-6 -18 -9 -34 -7 -36 2 -2 9 10 15 28 6 18 9 34 7 36 -2
2 -9 -10 -15 -28z"/>
<path d="M6996 8480 c36 -50 131 -140 148 -140 5 0 -12 16 -37 35 -25 19 -67
62 -92 95 -56 73 -69 80 -19 10z"/>
<path d="M7442 8470 c0 -19 2 -27 5 -17 2 9 2 25 0 35 -3 9 -5 1 -5 -18z"/>
<path d="M3155 8440 c-3 -5 -1 -10 4 -10 6 0 11 5 11 10 0 6 -2 10 -4 10 -3 0
-8 -4 -11 -10z"/>
<path d="M2990 8438 c0 -3 -7 -22 -15 -42 -8 -20 -13 -36 -10 -36 8 0 36 73
30 78 -3 3 -5 3 -5 0z"/>
<path d="M2631 8404 c0 -11 3 -14 6 -6 3 7 2 16 -1 19 -3 4 -6 -2 -5 -13z"/>
<path d="M2621 8364 c0 -11 3 -14 6 -6 3 7 2 16 -1 19 -3 4 -6 -2 -5 -13z"/>
<path d="M5062 8355 c0 -16 2 -22 5 -12 2 9 2 23 0 30 -3 6 -5 -1 -5 -18z"/>
<path d="M3109 8343 c-13 -16 -12 -17 4 -4 16 13 21 21 13 21 -2 0 -10 -8 -17
-17z"/>
<path d="M2613 8285 c0 -33 2 -45 4 -27 2 18 2 45 0 60 -2 15 -4 0 -4 -33z"/>
<path d="M7177 8309 c12 -12 24 -21 27 -18 2 2 -8 13 -22 23 l-27 19 22 -24z"/>
<path d="M5062 8300 c0 -14 2 -19 5 -12 2 6 2 18 0 25 -3 6 -5 1 -5 -13z"/>
<path d="M2921 8273 c-10 -26 -10 -27 4 -9 8 11 15 23 15 28 0 15 -7 8 -19
-19z"/>
<path d="M7220 8287 c0 -9 41 -68 79 -113 19 -23 28 -29 21 -15 -7 13 -21 34
-32 45 -10 12 -30 36 -44 55 -13 19 -24 32 -24 28z"/>
<path d="M2746 8262 c-3 -5 1 -9 9 -9 8 0 12 4 9 9 -3 4 -7 8 -9 8 -2 0 -6 -4
-9 -8z"/>
<path d="M5062 8133 c2 -104 6 -139 14 -132 8 7 9 21 3 47 -5 20 -8 77 -8 125
1 48 -2 91 -6 95 -4 4 -5 -57 -3 -135z"/>
<path d="M6905 8230 c18 -33 86 -130 91 -130 6 0 0 11 -45 75 -37 53 -60 81
-46 55z"/>
<path d="M5080 8196 c0 -2 7 -7 16 -10 8 -3 12 -2 9 4 -6 10 -25 14 -25 6z"/>
<path d="M7451 8159 c0 -13 4 -33 9 -44 7 -14 8 -8 3 20 -7 46 -13 59 -12 24z"/>
<path d="M3082 8156 c7 -8 15 -12 17 -11 5 6 -10 25 -20 25 -5 0 -4 -6 3 -14z"/>
<path d="M3279 8153 c-13 -16 -12 -17 4 -4 9 7 17 15 17 17 0 8 -8 3 -21 -13z"/>
<path d="M2612 8110 c0 -19 2 -27 5 -17 2 9 2 25 0 35 -3 9 -5 1 -5 -18z"/>
<path d="M2985 8079 c-4 -6 -5 -12 -2 -15 2 -3 7 2 10 11 7 17 1 20 -8 4z"/>
<path d="M2341 8064 c0 -11 3 -14 6 -6 3 7 2 16 -1 19 -3 4 -6 -2 -5 -13z"/>
<path d="M7025 8060 c10 -11 20 -20 23 -20 3 0 -3 9 -13 20 -10 11 -20 20 -23
20 -3 0 3 -9 13 -20z"/>
<path d="M7826 8043 c-6 -14 -5 -15 5 -6 7 7 10 15 7 18 -3 3 -9 -2 -12 -12z"/>
<path d="M7484 8025 c4 -16 12 -34 17 -40 5 -5 4 6 -2 25 -15 45 -24 54 -15
15z"/>
<path d="M2331 8024 c0 -11 3 -14 6 -6 3 7 2 16 -1 19 -3 4 -6 -2 -5 -13z"/>
<path d="M7095 7990 c10 -11 20 -20 23 -20 3 0 -3 9 -13 20 -10 11 -20 20 -23
20 -3 0 3 -9 13 -20z"/>
<path d="M2322 7980 c0 -14 2 -19 5 -12 2 6 2 18 0 25 -3 6 -5 1 -5 -13z"/>
<path d="M2378 7993 c7 -3 16 -2 19 1 4 3 -2 6 -13 5 -11 0 -14 -3 -6 -6z"/>
<path d="M7796 7983 c-6 -14 -5 -15 5 -6 7 7 10 15 7 18 -3 3 -9 -2 -12 -12z"/>
<path d="M2840 7980 c-9 -6 -10 -10 -3 -10 6 0 15 5 18 10 8 12 4 12 -15 0z"/>
<path d="M2310 7918 c0 -36 12 -31 16 7 1 14 -2 25 -7 25 -5 0 -9 -14 -9 -32z"/>
<path d="M7170 7931 c14 -11 30 -21 35 -21 11 0 -7 14 -40 31 -13 7 -12 3 5
-10z"/>
<path d="M2658 7855 c2 -38 6 -72 8 -74 8 -8 2 105 -5 124 -5 11 -6 -10 -3
-50z"/>
<path d="M5197 7907 c-3 -8 1 -14 8 -14 7 0 11 6 8 14 -3 7 -6 13 -8 13 -2 0
-5 -6 -8 -13z"/>
<path d="M7220 7906 c0 -3 14 -12 30 -21 17 -9 30 -13 30 -11 0 3 -13 12 -30
21 -16 9 -30 13 -30 11z"/>
<path d="M7756 7895 c-9 -26 -7 -32 5 -12 6 10 9 21 6 23 -2 3 -7 -2 -11 -11z"/>
<path d="M4784 7650 c0 -135 2 -190 3 -122 2 67 2 177 0 245 -1 67 -3 12 -3
-123z"/>
<path d="M4880 7886 c0 -2 8 -10 18 -17 15 -13 16 -12 3 4 -13 16 -21 21 -21
13z"/>
<path d="M2389 7862 c-11 -14 -11 -15 0 -5 7 6 20 9 27 6 8 -3 14 -3 14 0 0
14 -30 14 -41 -1z"/>
<path d="M2935 7860 c-3 -6 1 -7 9 -4 18 7 21 14 7 14 -6 0 -13 -4 -16 -10z"/>
<path d="M7300 7860 c8 -5 20 -10 25 -10 6 0 3 5 -5 10 -8 5 -19 10 -25 10 -5
0 -3 -5 5 -10z"/>
<path d="M2317 7844 c-4 -4 -7 -17 -7 -28 1 -19 1 -20 11 -3 11 19 8 43 -4 31z"/>
<path d="M2900 7840 c-9 -6 -10 -10 -3 -10 6 0 15 5 18 10 8 12 4 12 -15 0z"/>
<path d="M6090 7824 c0 -14 4 -23 9 -20 5 3 7 15 4 26 -7 28 -13 25 -13 -6z"/>
<path d="M7340 7845 c0 -2 10 -10 23 -16 20 -11 21 -11 8 4 -13 16 -31 23 -31
12z"/>
<path d="M2726 7787 c3 -10 9 -15 12 -12 3 3 0 11 -7 18 -10 9 -11 8 -5 -6z"/>
<path d="M5357 7779 c7 -7 15 -10 18 -7 3 3 -2 9 -12 12 -14 6 -15 5 -6 -5z"/>
<path d="M6092 7760 c0 -19 2 -27 5 -17 2 9 2 25 0 35 -3 9 -5 1 -5 -18z"/>
<path d="M2785 7770 c-3 -6 1 -7 9 -4 18 7 21 14 7 14 -6 0 -13 -4 -16 -10z"/>
<path d="M7460 7776 c0 -2 8 -10 18 -17 15 -13 16 -12 3 4 -13 16 -21 21 -21
13z"/>
<path d="M2312 7715 c0 -16 2 -22 5 -12 2 9 2 23 0 30 -3 6 -5 -1 -5 -18z"/>
<path d="M2651 7724 c0 -11 3 -14 6 -6 3 7 2 16 -1 19 -3 4 -6 -2 -5 -13z"/>
<path d="M7521 7714 c0 -11 3 -14 6 -6 3 7 2 16 -1 19 -3 4 -6 -2 -5 -13z"/>
<path d="M6093 7655 c0 -27 2 -38 4 -22 2 15 2 37 0 50 -2 12 -4 0 -4 -28z"/>
<path d="M2636 7653 c-2 -10 -8 -29 -11 -43 -5 -16 -4 -22 3 -15 5 6 12 25 15
43 7 34 2 44 -7 15z"/>
<path d="M6180 7666 c0 -2 7 -7 16 -10 8 -3 12 -2 9 4 -6 10 -25 14 -25 6z"/>
<path d="M7540 7665 c0 -5 5 -17 10 -25 5 -8 10 -10 10 -5 0 6 -5 17 -10 25
-5 8 -10 11 -10 5z"/>
<path d="M2859 7624 c-23 -25 -23 -26 -2 -13 13 7 25 19 27 26 8 19 2 16 -25
-13z"/>
<path d="M2337 7600 c6 -38 31 -111 32 -95 0 6 -8 37 -19 70 -11 33 -17 44
-13 25z"/>
<path d="M7180 7625 c0 -5 5 -17 10 -25 5 -8 10 -10 10 -5 0 6 -5 17 -10 25
-5 8 -10 11 -10 5z"/>
<path d="M4880 7600 c-12 -7 -10 -9 7 -7 12 0 19 5 17 9 -6 10 -6 10 -24 -2z"/>
<path d="M2606 7554 c-4 -14 -5 -28 -3 -31 3 -2 8 8 11 23 4 14 5 28 3 31 -3
2 -8 -8 -11 -23z"/>
<path d="M4958 7563 c7 -3 16 -2 19 1 4 3 -2 6 -13 5 -11 0 -14 -3 -6 -6z"/>
<path d="M2779 7543 c-13 -16 -12 -17 4 -4 9 7 17 15 17 17 0 8 -8 3 -21 -13z"/>
<path d="M5230 7541 c0 -6 4 -13 10 -16 6 -3 7 1 4 9 -7 18 -14 21 -14 7z"/>
<path d="M7219 7535 c17 -33 31 -51 31 -40 0 6 -10 21 -21 35 -13 17 -17 18
-10 5z"/>
<path d="M7712 7490 c0 -19 2 -27 5 -17 2 9 2 25 0 35 -3 9 -5 1 -5 -18z"/>
<path d="M2477 7499 c7 -7 15 -10 18 -7 3 3 -2 9 -12 12 -14 6 -15 5 -6 -5z"/>
<path d="M2791 7494 c0 -11 3 -14 6 -6 3 7 2 16 -1 19 -3 4 -6 -2 -5 -13z"/>
<path d="M5121 7494 c0 -11 3 -14 6 -6 3 7 2 16 -1 19 -3 4 -6 -2 -5 -13z"/>
<path d="M6091 7494 c0 -11 3 -14 6 -6 3 7 2 16 -1 19 -3 4 -6 -2 -5 -13z"/>
<path d="M2589 7474 c-5 -15 -7 -29 -5 -32 5 -4 10 6 22 46 7 23 -7 12 -17
-14z"/>
<path d="M2371 7485 c0 -5 6 -21 14 -35 8 -14 14 -20 14 -15 0 6 -6 21 -14 35
-8 14 -14 21 -14 15z"/>
<path d="M2737 7477 c-3 -8 1 -14 8 -14 7 0 11 6 8 14 -3 7 -6 13 -8 13 -2 0
-5 -6 -8 -13z"/>
<path d="M2936 7477 c3 -10 9 -15 12 -12 3 3 0 11 -7 18 -10 9 -11 8 -5 -6z"/>
<path d="M5068 7483 c7 -3 16 -2 19 1 4 3 -2 6 -13 5 -11 0 -14 -3 -6 -6z"/>
<path d="M7260 7460 c6 -11 13 -20 16 -20 2 0 0 9 -6 20 -6 11 -13 20 -16 20
-2 0 0 -9 6 -20z"/>
<path d="M7612 7445 c0 -16 2 -22 5 -12 2 9 2 23 0 30 -3 6 -5 -1 -5 -18z"/>
<path d="M4810 7451 c0 -6 4 -13 10 -16 6 -3 7 1 4 9 -7 18 -14 21 -14 7z"/>
<path d="M7460 7400 c0 -5 5 -10 11 -10 5 0 7 5 4 10 -3 6 -8 10 -11 10 -2 0
-4 -4 -4 -10z"/>
<path d="M7622 7390 c0 -14 2 -19 5 -12 2 6 2 18 0 25 -3 6 -5 1 -5 -13z"/>
<path d="M7330 7375 c13 -14 26 -25 28 -25 3 0 -5 11 -18 25 -13 14 -26 25
-28 25 -3 0 5 -11 18 -25z"/>
<path d="M4780 6570 c0 -453 2 -821 5 -818 7 6 7 1629 0 1636 -3 3 -5 -365 -5
-818z"/>
<path d="M2142 7340 c0 -14 2 -19 5 -12 2 6 2 18 0 25 -3 6 -5 1 -5 -13z"/>
<path d="M5491 7344 c0 -11 3 -14 6 -6 3 7 2 16 -1 19 -3 4 -6 -2 -5 -13z"/>
<path d="M5814 7235 c0 -71 1 -99 3 -62 2 37 2 96 0 130 -2 34 -3 4 -3 -68z"/>
<path d="M5407 7339 c7 -7 15 -10 18 -7 3 3 -2 9 -12 12 -14 6 -15 5 -6 -5z"/>
<path d="M7385 7332 c11 -13 29 -28 40 -34 21 -11 18 -8 -30 32 -29 24 -29 24
-10 2z"/>
<path d="M8010 7305 c-11 -13 -10 -14 4 -9 9 3 16 10 16 15 0 13 -6 11 -20 -6z"/>
<path d="M5307 7299 c7 -7 15 -10 18 -7 3 3 -2 9 -12 12 -14 6 -15 5 -6 -5z"/>
<path d="M5280 7286 c0 -2 8 -10 18 -17 15 -13 16 -12 3 4 -13 16 -21 21 -21
13z"/>
<path d="M7450 7283 c0 -5 13 -17 28 -27 l27 -19 -24 26 c-26 28 -31 32 -31
20z"/>
<path d="M5926 7267 c3 -10 9 -15 12 -12 3 3 0 11 -7 18 -10 9 -11 8 -5 -6z"/>
<path d="M7970 7265 c-7 -9 -11 -17 -9 -20 3 -2 10 5 17 15 14 24 10 26 -8 5z"/>
<path d="M8007 7249 c7 -7 15 -10 18 -7 3 3 -2 9 -12 12 -14 6 -15 5 -6 -5z"/>
<path d="M2142 7230 c0 -14 2 -19 5 -12 2 6 2 18 0 25 -3 6 -5 1 -5 -13z"/>
<path d="M6141 7214 c0 -11 3 -14 6 -6 3 7 2 16 -1 19 -3 4 -6 -2 -5 -13z"/>
<path d="M6227 7219 c7 -7 15 -10 18 -7 3 3 -2 9 -12 12 -14 6 -15 5 -6 -5z"/>
<path d="M4040 7211 c0 -5 5 -13 10 -16 6 -3 10 -2 10 4 0 5 -4 13 -10 16 -5
3 -10 2 -10 -4z"/>
<path d="M6320 7216 c0 -2 7 -7 16 -10 8 -3 12 -2 9 4 -6 10 -25 14 -25 6z"/>
<path d="M2510 7191 c0 -6 4 -13 10 -16 6 -3 7 1 4 9 -7 18 -14 21 -14 7z"/>
<path d="M2632 7180 c0 -14 2 -19 5 -12 2 6 2 18 0 25 -3 6 -5 1 -5 -13z"/>
<path d="M2674 7178 l-19 -23 23 19 c21 18 27 26 19 26 -2 0 -12 -10 -23 -22z"/>
<path d="M6210 7196 c0 -2 7 -7 16 -10 8 -3 12 -2 9 4 -6 10 -25 14 -25 6z"/>
<path d="M7560 7196 c0 -2 8 -10 18 -17 15 -13 16 -12 3 4 -13 16 -21 21 -21
13z"/>
<path d="M6032 7144 c10 -10 20 -16 22 -13 3 3 -5 11 -17 18 -21 13 -21 12 -5
-5z"/>
<path d="M2156 7135 c-3 -8 -1 -15 4 -15 6 0 10 7 10 15 0 8 -2 15 -4 15 -2 0
-6 -7 -10 -15z"/>
<path d="M2600 7140 c0 -5 5 -10 11 -10 5 0 7 5 4 10 -3 6 -8 10 -11 10 -2 0
-4 -4 -4 -10z"/>
<path d="M7620 7130 c6 -11 13 -20 16 -20 2 0 0 9 -6 20 -6 11 -13 20 -16 20
-2 0 0 -9 6 -20z"/>
<path d="M7871 7127 c-13 -21 -12 -21 5 -5 10 10 16 20 13 22 -3 3 -11 -5 -18
-17z"/>
<path d="M2532 7110 c0 -14 2 -19 5 -12 2 6 2 18 0 25 -3 6 -5 1 -5 -13z"/>
<path d="M4054 7035 c0 -55 1 -76 3 -47 2 29 2 74 0 100 -2 26 -3 2 -3 -53z"/>
<path d="M2161 7094 c0 -11 3 -14 6 -6 3 7 2 16 -1 19 -3 4 -6 -2 -5 -13z"/>
<path d="M6250 7099 c0 -5 5 -7 10 -4 6 3 10 8 10 11 0 2 -4 4 -10 4 -5 0 -10
-5 -10 -11z"/>
<path d="M2566 7087 c3 -10 9 -15 12 -12 3 3 0 11 -7 18 -10 9 -11 8 -5 -6z"/>
<path d="M2171 7054 c0 -11 3 -14 6 -6 3 7 2 16 -1 19 -3 4 -6 -2 -5 -13z"/>
<path d="M2532 7045 c0 -16 2 -22 5 -12 2 9 2 23 0 30 -3 6 -5 -1 -5 -18z"/>
<path d="M7272 7050 c0 -14 2 -19 5 -12 2 6 2 18 0 25 -3 6 -5 1 -5 -13z"/>
<path d="M5810 6980 c0 -40 3 -70 7 -67 7 7 5 129 -3 136 -2 2 -4 -29 -4 -69z"/>
<path d="M6327 7029 c7 -7 15 -10 18 -7 3 3 -2 9 -12 12 -14 6 -15 5 -6 -5z"/>
<path d="M7816 7013 c-6 -14 -5 -15 5 -6 7 7 10 15 7 18 -3 3 -9 -2 -12 -12z"/>
<path d="M2749 7003 c-13 -16 -12 -17 4 -4 16 13 21 21 13 21 -2 0 -10 -8 -17
-17z"/>
<path d="M7280 7015 c0 -5 5 -17 10 -25 5 -8 10 -10 10 -5 0 6 -5 17 -10 25
-5 8 -10 11 -10 5z"/>
<path d="M2531 6984 c0 -11 3 -14 6 -6 3 7 2 16 -1 19 -3 4 -6 -2 -5 -13z"/>
<path d="M7673 6955 c0 -22 2 -30 4 -17 2 12 2 30 0 40 -3 9 -5 -1 -4 -23z"/>
<path d="M4923 6965 c0 -8 4 -12 9 -9 5 3 6 10 3 15 -9 13 -12 11 -12 -6z"/>
<path d="M7428 6963 c7 -3 16 -2 19 1 4 3 -2 6 -13 5 -11 0 -14 -3 -6 -6z"/>
<path d="M2206 6947 c3 -10 9 -15 12 -12 3 3 0 11 -7 18 -10 9 -11 8 -5 -6z"/>
<path d="M2521 6918 c1 -28 3 -34 6 -18 3 14 9 27 13 30 4 3 2 11 -6 18 -12
11 -14 6 -13 -30z"/>
<path d="M7390 6951 c0 -5 5 -13 10 -16 6 -3 10 -2 10 4 0 5 -4 13 -10 16 -5
3 -10 2 -10 -4z"/>
<path d="M7300 6945 c0 -5 5 -17 10 -25 5 -8 10 -10 10 -5 0 6 -5 17 -10 25
-5 8 -10 11 -10 5z"/>
<path d="M6090 6919 c0 -5 5 -7 10 -4 6 3 10 8 10 11 0 2 -4 4 -10 4 -5 0 -10
-5 -10 -11z"/>
<path d="M7780 6921 c0 -6 4 -13 10 -16 6 -3 7 1 4 9 -7 18 -14 21 -14 7z"/>
<path d="M6301 6894 c0 -11 3 -14 6 -6 3 7 2 16 -1 19 -3 4 -6 -2 -5 -13z"/>
<path d="M7673 6860 c0 -30 2 -43 4 -27 2 15 2 39 0 55 -2 15 -4 2 -4 -28z"/>
<path d="M2235 6891 c-3 -5 -2 -12 3 -15 5 -3 9 1 9 9 0 17 -3 19 -12 6z"/>
<path d="M5813 6858 l-2 -43 9 35 c5 19 5 38 1 43 -4 4 -8 -12 -8 -35z"/>
<path d="M7851 6884 c0 -11 3 -14 6 -6 3 7 2 16 -1 19 -3 4 -6 -2 -5 -13z"/>
<path d="M6271 6874 c0 -11 3 -14 6 -6 3 7 2 16 -1 19 -3 4 -6 -2 -5 -13z"/>
<path d="M2390 6870 c0 -5 5 -10 11 -10 5 0 7 5 4 10 -3 6 -8 10 -11 10 -2 0
-4 -4 -4 -10z"/>
<path d="M5017 6869 c7 -7 15 -10 18 -7 3 3 -2 9 -12 12 -14 6 -15 5 -6 -5z"/>
<path d="M5431 6864 c0 -11 3 -14 6 -6 3 7 2 16 -1 19 -3 4 -6 -2 -5 -13z"/>
<path d="M7330 6876 c0 -14 58 -91 86 -116 l29 -25 -26 30 c-15 17 -41 50 -58
74 -17 24 -31 41 -31 37z"/>
<path d="M2260 6841 c5 -11 15 -23 21 -27 6 -3 3 5 -6 20 -20 30 -30 35 -15 7z"/>
<path d="M4890 6854 c0 -6 9 -19 19 -29 19 -16 20 -16 18 3 0 11 -5 18 -10 15
-5 -3 -13 1 -18 8 -5 8 -9 9 -9 3z"/>
<path d="M2655 6800 c-4 -17 -5 -34 -2 -36 2 -3 7 10 11 27 8 42 0 50 -9 9z"/>
<path d="M3785 6418 l0 -413 110 -3 c60 -1 106 0 103 3 -3 4 -51 6 -107 6
l-101 -1 -3 410 -2 410 0 -412z"/>
<path d="M3818 6813 c7 -3 16 -2 19 1 4 3 -2 6 -13 5 -11 0 -14 -3 -6 -6z"/>
<path d="M2836 6782 l-19 -27 26 24 c28 26 32 31 20 31 -5 0 -17 -13 -27 -28z"/>
<path d="M5813 6770 c0 -25 2 -35 4 -22 2 12 2 32 0 45 -2 12 -4 2 -4 -23z"/>
<path d="M2300 6793 c0 -6 8 -17 18 -24 16 -13 16 -13 2 6 -8 11 -16 22 -17
24 -2 2 -3 0 -3 -6z"/>
<path d="M2529 6752 c5 -34 6 -35 9 -8 2 16 0 32 -5 37 -5 5 -7 -7 -4 -29z"/>
<path d="M2770 6760 c0 -5 5 -10 11 -10 5 0 7 5 4 10 -3 6 -8 10 -11 10 -2 0
-4 -4 -4 -10z"/>
<path d="M7662 6735 c0 -16 2 -22 5 -12 2 9 2 23 0 30 -3 6 -5 -1 -5 -18z"/>
<path d="M7901 6737 c-13 -21 -12 -21 5 -5 10 10 16 20 13 22 -3 3 -11 -5 -18
-17z"/>
<path d="M2365 6721 c28 -30 65 -57 65 -48 0 3 -21 22 -47 43 -46 36 -47 36
-18 5z"/>
<path d="M2795 6740 c-3 -5 -2 -10 4 -10 5 0 13 5 16 10 3 6 2 10 -4 10 -5 0
-13 -4 -16 -10z"/>
<path d="M2642 6710 c0 -19 2 -27 5 -17 2 9 2 25 0 35 -3 9 -5 1 -5 -18z"/>
<path d="M6340 6736 c0 -2 8 -10 18 -17 15 -13 16 -12 3 4 -13 16 -21 21 -21
13z"/>
<path d="M7441 6728 c2 -2 22 -19 44 -38 l40 -35 -34 38 c-19 20 -39 37 -45
37 -5 0 -7 -1 -5 -2z"/>
<path d="M5812 6710 c4 -12 32 -16 141 -20 76 -3 137 -2 137 3 0 7 -2 8 -155
9 -59 0 -106 5 -114 12 -11 9 -13 8 -9 -4z"/>
<path d="M2541 6694 c0 -11 3 -14 6 -6 3 7 2 16 -1 19 -3 4 -6 -2 -5 -13z"/>
<path d="M4910 6706 c0 -2 7 -9 15 -16 13 -11 14 -10 9 4 -5 14 -24 23 -24 12z"/>
<path d="M6220 6699 c0 -4 59 -8 132 -8 73 -1 130 0 128 3 -8 8 -260 13 -260
5z"/>
<path d="M7845 6668 l-40 -43 43 40 c39 36 47 45 39 45 -2 0 -21 -19 -42 -42z"/>
<path d="M2939 6683 c-13 -16 -12 -17 4 -4 9 7 17 15 17 17 0 8 -8 3 -21 -13z"/>
<path d="M3875 6690 c3 -5 8 -10 11 -10 2 0 4 5 4 10 0 6 -5 10 -11 10 -5 0
-7 -4 -4 -10z"/>
<path d="M7232 6670 c0 -14 2 -19 5 -12 2 6 2 18 0 25 -3 6 -5 1 -5 -13z"/>
<path d="M2726 6664 c-10 -25 1 -29 14 -5 6 12 7 21 1 21 -5 0 -12 -7 -15 -16z"/>
<path d="M3980 6660 c0 -5 5 -10 11 -10 5 0 7 5 4 10 -3 6 -8 10 -11 10 -2 0
-4 -4 -4 -10z"/>
<path d="M4030 6666 c0 -2 7 -7 16 -10 8 -3 12 -2 9 4 -6 10 -25 14 -25 6z"/>
<path d="M2445 6640 c3 -5 8 -10 11 -10 2 0 4 5 4 10 0 6 -5 10 -11 10 -5 0
-7 -4 -4 -10z"/>
<path d="M2900 6630 c-6 -11 -8 -20 -6 -20 3 0 10 9 16 20 6 11 8 20 6 20 -3
0 -10 -9 -16 -20z"/>
<path d="M4246 6637 c3 -10 9 -15 12 -12 3 3 0 11 -7 18 -10 9 -11 8 -5 -6z"/>
<path d="M7536 6642 c-2 -4 5 -19 15 -32 17 -20 18 -21 10 -4 -6 12 -8 24 -5
27 3 3 1 8 -5 11 -5 4 -12 3 -15 -2z"/>
<path d="M2940 6630 c0 -5 5 -10 11 -10 5 0 7 5 4 10 -3 6 -8 10 -11 10 -2 0
-4 -4 -4 -10z"/>
<path d="M4975 6630 c-3 -5 -1 -10 4 -10 6 0 11 5 11 10 0 6 -2 10 -4 10 -3 0
-8 -4 -11 -10z"/>
<path d="M6157 6609 c7 -7 15 -10 18 -7 3 3 -2 9 -12 12 -14 6 -15 5 -6 -5z"/>
<path d="M4880 6603 c0 -9 40 -36 45 -31 2 2 -8 11 -21 21 -13 10 -24 14 -24
10z"/>
<path d="M6082 6568 c0 -29 3 -37 8 -24 6 18 2 66 -6 66 -1 0 -2 -19 -2 -42z"/>
<path d="M2505 6580 c10 -11 20 -20 22 -20 2 0 -2 9 -9 20 -7 11 -17 20 -22
20 -5 0 -1 -9 9 -20z"/>
<path d="M2676 6591 c-17 -6 -17 -8 -4 -14 10 -3 19 0 22 9 3 8 4 14 3 13 -1
0 -11 -4 -21 -8z"/>
<path d="M2867 6565 c-9 -19 -15 -35 -12 -35 7 0 37 61 33 66 -3 2 -12 -12
-21 -31z"/>
<path d="M7221 6584 c0 -11 3 -14 6 -6 3 7 2 16 -1 19 -3 4 -6 -2 -5 -13z"/>
<path d="M7761 6577 c-13 -21 -12 -21 5 -5 10 10 16 20 13 22 -3 3 -11 -5 -18
-17z"/>
<path d="M2626 6563 c-6 -14 -5 -15 5 -6 7 7 10 15 7 18 -3 3 -9 -2 -12 -12z"/>
<path d="M2131 6550 c0 -8 4 -24 9 -35 5 -13 9 -14 9 -5 0 8 -4 24 -9 35 -5
13 -9 14 -9 5z"/>
<path d="M4076 6517 c3 -10 9 -15 12 -12 3 3 0 11 -7 18 -10 9 -11 8 -5 -6z"/>
<path d="M4030 6500 c0 -5 5 -10 11 -10 5 0 7 5 4 10 -3 6 -8 10 -11 10 -2 0
-4 -4 -4 -10z"/>
<path d="M4280 6496 c7 -7 13 -7 20 0 6 6 3 10 -10 10 -13 0 -16 -4 -10 -10z"/>
<path d="M2957 6489 c7 -7 15 -10 18 -7 3 3 -2 9 -12 12 -14 6 -15 5 -6 -5z"/>
<path d="M7210 6466 c0 -20 2 -36 4 -36 8 0 12 61 4 66 -4 3 -8 -11 -8 -30z"/>
<path d="M3860 6480 c0 -5 5 -10 11 -10 5 0 7 5 4 10 -3 6 -8 10 -11 10 -2 0
-4 -4 -4 -10z"/>
<path d="M6086 6481 c-7 -12 -4 -61 4 -61 4 0 6 16 6 35 -1 38 -2 40 -10 26z"/>
<path d="M2176 6418 c22 -57 56 -112 38 -63 -4 11 -10 25 -14 30 -4 6 -13 27
-19 47 -7 21 -16 40 -21 43 -5 3 2 -23 16 -57z"/>
<path d="M7612 6455 c0 -16 2 -22 5 -12 2 9 2 23 0 30 -3 6 -5 -1 -5 -18z"/>
<path d="M2575 6445 c3 -11 11 -42 17 -68 5 -27 12 -46 14 -44 7 6 -15 97 -27
116 -9 13 -9 12 -4 -4z"/>
<path d="M2350 6439 c0 -5 5 -7 10 -4 6 3 10 8 10 11 0 2 -4 4 -10 4 -5 0 -10
-5 -10 -11z"/>
<path d="M2812 6420 c0 -14 2 -19 5 -12 2 6 2 18 0 25 -3 6 -5 1 -5 -13z"/>
<path d="M5001 6394 c0 -11 3 -14 6 -6 3 7 2 16 -1 19 -3 4 -6 -2 -5 -13z"/>
<path d="M6085 6400 c-3 -5 -1 -10 4 -10 6 0 11 5 11 10 0 6 -2 10 -4 10 -3 0
-8 -4 -11 -10z"/>
<path d="M5491 6384 c0 -11 3 -14 6 -6 3 7 2 16 -1 19 -3 4 -6 -2 -5 -13z"/>
<path d="M2626 6367 c3 -10 9 -15 12 -12 3 3 0 11 -7 18 -10 9 -11 8 -5 -6z"/>
<path d="M7593 6365 c-3 -9 -3 -18 -1 -21 3 -3 8 4 11 16 6 23 -1 27 -10 5z"/>
<path d="M4888 6363 c7 -3 16 -2 19 1 4 3 -2 6 -13 5 -11 0 -14 -3 -6 -6z"/>
<path d="M2791 6338 c0 -16 2 -18 6 -8 3 8 11 18 17 22 7 5 4 8 -6 8 -12 0
-18 -7 -17 -22z"/>
<path d="M2227 6315 c3 -8 9 -12 14 -9 12 7 11 11 -5 17 -10 4 -13 1 -9 -8z"/>
<path d="M7581 6314 c0 -11 3 -14 6 -6 3 7 2 16 -1 19 -3 4 -6 -2 -5 -13z"/>
<path d="M3905 6300 c10 -11 20 -20 23 -20 3 0 -3 9 -13 20 -10 11 -20 20 -23
20 -3 0 3 -9 13 -20z"/>
<path d="M2782 6173 c1 -122 6 -108 10 35 2 45 0 82 -4 82 -5 0 -7 -53 -6
-117z"/>
<path d="M4160 6286 c0 -2 8 -10 18 -17 15 -13 16 -12 3 4 -13 16 -21 21 -21
13z"/>
<path d="M7241 6280 c1 -24 15 -54 21 -44 4 5 0 20 -8 34 -7 14 -13 18 -13 10z"/>
<path d="M7709 6273 c-13 -16 -12 -17 4 -4 9 7 17 15 17 17 0 8 -8 3 -21 -13z"/>
<path d="M2257 6268 c12 -25 104 -130 109 -125 3 3 -10 20 -28 39 -18 19 -46
50 -61 69 -16 19 -25 26 -20 17z"/>
<path d="M6091 6250 c-1 -43 14 -60 49 -59 23 1 23 2 -5 8 -26 5 -31 12 -36
46 l-6 40 -2 -35z"/>
<path d="M7350 6270 c0 -5 5 -10 11 -10 5 0 7 5 4 10 -3 6 -8 10 -11 10 -2 0
-4 -4 -4 -10z"/>
<path d="M3850 6251 c0 -6 4 -13 10 -16 6 -3 7 1 4 9 -7 18 -14 21 -14 7z"/>
<path d="M5003 6235 c0 -7 6 -11 14 -8 7 3 13 6 13 8 0 2 -6 5 -13 8 -8 3 -14
-1 -14 -8z"/>
<path d="M7686 6233 c-6 -14 -5 -15 5 -6 7 7 10 15 7 18 -3 3 -9 -2 -12 -12z"/>
<path d="M2965 6229 c-4 -6 -5 -12 -2 -15 2 -3 7 2 10 11 7 17 1 20 -8 4z"/>
<path d="M3106 6225 c-9 -26 -7 -32 5 -12 6 10 9 21 6 23 -2 3 -7 -2 -11 -11z"/>
<path d="M4070 6201 c14 -11 30 -21 35 -21 11 0 -7 14 -40 31 -13 7 -12 3 5
-10z"/>
<path d="M6170 6200 c0 -5 5 -10 11 -10 5 0 7 5 4 10 -3 6 -8 10 -11 10 -2 0
-4 -4 -4 -10z"/>
<path d="M7909 6187 c-40 -39 -73 -77 -66 -77 7 0 48 40 81 78 25 29 15 28
-15 -1z"/>
<path d="M4187 6189 c7 -7 15 -10 18 -7 3 3 -2 9 -12 12 -14 6 -15 5 -6 -5z"/>
<path d="M3086 6173 c-6 -14 -5 -15 5 -6 7 7 10 15 7 18 -3 3 -9 -2 -12 -12z"/>
<path d="M4920 6180 c0 -5 5 -10 11 -10 5 0 7 5 4 10 -3 6 -8 10 -11 10 -2 0
-4 -4 -4 -10z"/>
<path d="M5358 6183 c7 -3 16 -2 19 1 4 3 -2 6 -13 5 -11 0 -14 -3 -6 -6z"/>
<path d="M7051 6163 c-10 -26 -10 -27 4 -9 8 11 15 23 15 28 0 15 -7 8 -19
-19z"/>
<path d="M4040 6172 c0 -4 10 -13 23 -21 22 -14 22 -14 3 8 -20 22 -26 25 -26
13z"/>
<path d="M7296 6137 c3 -10 9 -15 12 -12 3 3 0 11 -7 18 -10 9 -11 8 -5 -6z"/>
<path d="M2412 6108 c20 -18 51 -42 70 -52 45 -26 35 -16 -42 38 -46 33 -54
37 -28 14z"/>
<path d="M5140 6120 c6 -11 13 -20 16 -20 2 0 0 9 -6 20 -6 11 -13 20 -16 20
-2 0 0 -9 6 -20z"/>
<path d="M7026 6114 c-6 -15 -4 -15 11 -3 10 7 20 15 22 16 2 2 -3 3 -11 3 -9
0 -19 -7 -22 -16z"/>
<path d="M5207 6109 c7 -7 15 -10 18 -7 3 3 -2 9 -12 12 -14 6 -15 5 -6 -5z"/>
<path d="M7510 6111 c0 -6 4 -13 10 -16 6 -3 7 1 4 9 -7 18 -14 21 -14 7z"/>
<path d="M3060 6085 c0 -8 4 -15 10 -15 5 0 7 7 4 15 -4 8 -8 15 -10 15 -2 0
-4 -7 -4 -15z"/>
<path d="M7810 6089 c0 -5 5 -7 10 -4 6 3 10 8 10 11 0 2 -4 4 -10 4 -5 0 -10
-5 -10 -11z"/>
<path d="M5430 6070 c0 -5 5 -10 11 -10 5 0 7 5 4 10 -3 6 -8 10 -11 10 -2 0
-4 -4 -4 -10z"/>
<path d="M5491 6064 c0 -11 3 -14 6 -6 3 7 2 16 -1 19 -3 4 -6 -2 -5 -13z"/>
<path d="M7757 6055 c-20 -14 -37 -28 -37 -30 0 -6 69 36 76 46 8 14 2 11 -39
-16z"/>
<path d="M3046 6029 c-3 -17 -5 -43 -5 -58 1 -14 5 -2 10 28 10 58 6 83 -5 30z"/>
<path d="M2520 6035 c0 -2 21 -16 48 -31 26 -15 69 -41 97 -58 27 -17 53 -30
57 -28 5 1 8 -2 8 -8 0 -5 15 -30 34 -54 24 -32 37 -41 47 -35 10 6 11 9 1 9
-18 0 -71 62 -72 83 0 9 -6 17 -14 17 -22 0 -126 66 -118 75 4 5 1 5 -6 1 -7
-4 -25 2 -41 13 -29 21 -41 26 -41 16z"/>
<path d="M5076 6015 c10 -8 23 -15 28 -15 6 0 1 7 -10 15 -10 8 -23 15 -28 15
-6 0 -1 -7 10 -15z"/>
<path d="M6986 6013 c-6 -14 -5 -15 5 -6 7 7 10 15 7 18 -3 3 -9 -2 -12 -12z"/>
<path d="M7350 6011 c0 -10 19 -25 25 -20 1 2 -3 10 -11 17 -8 7 -14 8 -14 3z"/>
<path d="M4293 6003 c32 -2 81 -2 110 0 29 2 3 3 -58 3 -60 0 -84 -1 -52 -3z"/>
<path d="M5470 6006 c0 -2 7 -7 16 -10 8 -3 12 -2 9 4 -6 10 -25 14 -25 6z"/>
<path d="M7655 5993 c-33 -18 -81 -53 -72 -53 3 0 22 10 40 23 19 12 43 27 53
34 28 17 14 15 -21 -4z"/>
<path d="M4050 5806 c0 -181 6 -226 32 -226 6 0 4 8 -5 18 -19 21 -24 102 -6
102 8 0 8 4 0 14 -8 9 -11 58 -10 141 0 69 -2 129 -5 132 -3 4 -6 -78 -6 -181z"/>
<path d="M5176 5927 c3 -10 9 -15 12 -12 3 3 0 11 -7 18 -10 9 -11 8 -5 -6z"/>
<path d="M4910 5900 c6 -11 13 -20 16 -20 2 0 0 9 -6 20 -6 11 -13 20 -16 20
-2 0 0 -9 6 -20z"/>
<path d="M7525 5910 c-3 -6 1 -7 9 -4 18 7 21 14 7 14 -6 0 -13 -4 -16 -10z"/>
<path d="M4947 5889 c7 -7 15 -10 18 -7 3 3 -2 9 -12 12 -14 6 -15 5 -6 -5z"/>
<path d="M7130 5870 c0 -5 5 -10 11 -10 5 0 7 5 4 10 -3 6 -8 10 -11 10 -2 0
-4 -4 -4 -10z"/>
<path d="M2310 5826 c0 -10 68 -116 75 -116 3 0 -12 26 -32 58 -41 66 -43 68
-43 58z"/>
<path d="M6961 5814 c0 -11 3 -14 6 -6 3 7 2 16 -1 19 -3 4 -6 -2 -5 -13z"/>
<path d="M3042 5800 c0 -14 2 -19 5 -12 2 6 2 18 0 25 -3 6 -5 1 -5 -13z"/>
<path d="M3160 5790 c0 -5 5 -10 11 -10 5 0 7 5 4 10 -3 6 -8 10 -11 10 -2 0
-4 -4 -4 -10z"/>
<path d="M6972 5770 c0 -14 2 -19 5 -12 2 6 2 18 0 25 -3 6 -5 1 -5 -13z"/>
<path d="M7140 5779 c0 -5 5 -7 10 -4 6 3 10 8 10 11 0 2 -4 4 -10 4 -5 0 -10
-5 -10 -11z"/>
<path d="M3412 5760 c0 -14 2 -19 5 -12 2 6 2 18 0 25 -3 6 -5 1 -5 -13z"/>
<path d="M3051 5753 c-1 -12 4 -25 9 -28 12 -7 12 2 0 30 -8 19 -9 19 -9 -2z"/>
<path d="M4815 5760 c-3 -5 -1 -10 4 -10 6 0 11 5 11 10 0 6 -2 10 -4 10 -3 0
-8 -4 -11 -10z"/>
<path d="M5390 5761 c0 -6 4 -13 10 -16 6 -3 7 1 4 9 -7 18 -14 21 -14 7z"/>
<path d="M7871 5737 c-13 -21 -12 -21 5 -5 10 10 16 20 13 22 -3 3 -11 -5 -18
-17z"/>
<path d="M2840 5730 c6 -11 13 -20 16 -20 2 0 0 9 -6 20 -6 11 -13 20 -16 20
-2 0 0 -9 6 -20z"/>
<path d="M5105 5740 c3 -5 8 -10 11 -10 2 0 4 5 4 10 0 6 -5 10 -11 10 -5 0
-7 -4 -4 -10z"/>
<path d="M6705 5730 c-3 -6 1 -7 9 -4 18 7 21 14 7 14 -6 0 -13 -4 -16 -10z"/>
<path d="M6982 5715 c0 -16 2 -22 5 -12 2 9 2 23 0 30 -3 6 -5 -1 -5 -18z"/>
<path d="M7301 5704 c-12 -19 -16 -32 -11 -29 11 7 43 65 36 65 -2 0 -13 -16
-25 -36z"/>
<path d="M7834 5688 c-31 -36 -47 -58 -41 -58 3 0 20 18 37 40 34 43 36 55 4
18z"/>
<path d="M6674 5689 c-3 -6 -2 -15 3 -20 5 -5 9 -1 9 11 0 23 -2 24 -12 9z"/>
<path d="M2410 5672 c0 -23 172 -177 232 -208 44 -23 33 -9 -17 20 -25 15 -45
31 -45 36 0 6 -5 10 -11 10 -7 0 -45 33 -85 74 -41 41 -74 71 -74 68z"/>
<path d="M3071 5664 c0 -11 3 -14 6 -6 3 7 2 16 -1 19 -3 4 -6 -2 -5 -13z"/>
<path d="M4781 5664 c0 -11 3 -14 6 -6 3 7 2 16 -1 19 -3 4 -6 -2 -5 -13z"/>
<path d="M6992 5660 c0 -14 2 -19 5 -12 2 6 2 18 0 25 -3 6 -5 1 -5 -13z"/>
<path d="M2886 5657 c3 -10 9 -15 12 -12 3 3 0 11 -7 18 -10 9 -11 8 -5 -6z"/>
<path d="M4836 5656 c3 -9 13 -16 22 -16 8 0 13 1 11 3 -2 1 -12 9 -22 16 -15
12 -17 12 -11 -3z"/>
<path d="M3410 5640 c0 -5 5 -10 11 -10 5 0 7 5 4 10 -3 6 -8 10 -11 10 -2 0
-4 -4 -4 -10z"/>
<path d="M5243 5643 c15 -2 37 -2 50 0 12 2 0 4 -28 4 -27 0 -38 -2 -22 -4z"/>
<path d="M5383 5643 c9 -2 23 -2 30 0 6 3 -1 5 -18 5 -16 0 -22 -2 -12 -5z"/>
<path d="M5443 5643 c9 -2 25 -2 35 0 9 3 1 5 -18 5 -19 0 -27 -2 -17 -5z"/>
<path d="M7687 5629 c4 -13 8 -18 11 -10 2 7 -1 18 -6 23 -8 8 -9 4 -5 -13z"/>
<path d="M5062 5410 c-2 -274 -1 -280 72 -280 47 0 78 22 59 41 -8 8 -11 6
-10 -7 2 -15 -6 -20 -38 -22 -71 -4 -69 -10 -75 260 l-6 243 -2 -235z"/>
<path d="M6798 5633 c7 -3 16 -2 19 1 4 3 -2 6 -13 5 -11 0 -14 -3 -6 -6z"/>
<path d="M7002 5610 c0 -14 2 -19 5 -12 2 6 2 18 0 25 -3 6 -5 1 -5 -13z"/>
<path d="M3414 5606 c-3 -8 -4 -25 -2 -38 3 -17 5 -13 9 15 5 38 2 47 -7 23z"/>
<path d="M6615 5590 c-9 -16 -13 -30 -11 -30 3 0 12 14 21 30 9 17 13 30 11
30 -3 0 -12 -13 -21 -30z"/>
<path d="M3535 5589 c-4 -6 -5 -12 -2 -15 2 -3 7 2 10 11 7 17 1 20 -8 4z"/>
<path d="M3596 5591 c-3 -5 1 -11 9 -15 8 -3 15 -1 15 4 0 13 -18 22 -24 11z"/>
<path d="M4160 5589 c0 -5 5 -7 10 -4 6 3 10 8 10 11 0 2 -4 4 -10 4 -5 0 -10
-5 -10 -11z"/>
<path d="M3106 5577 c3 -10 9 -15 12 -12 3 3 0 11 -7 18 -10 9 -11 8 -5 -6z"/>
<path d="M4100 5580 c0 -5 9 -10 19 -10 11 0 23 5 26 10 4 6 -5 10 -19 10 -14
0 -26 -4 -26 -10z"/>
<path d="M2946 5568 c3 -5 10 -6 15 -3 13 9 11 12 -6 12 -8 0 -12 -4 -9 -9z"/>
<path d="M7012 5545 c0 -16 2 -22 5 -12 2 9 2 23 0 30 -3 6 -5 -1 -5 -18z"/>
<path d="M7713 5555 c-7 -7 -22 -20 -35 -29 -12 -9 -20 -17 -17 -20 2 -2 19 9
38 25 19 16 33 30 30 33 -2 2 -9 -2 -16 -9z"/>
<path d="M3126 5537 c3 -10 9 -15 12 -12 3 3 0 11 -7 18 -10 9 -11 8 -5 -6z"/>
<path d="M6750 5534 c0 -13 18 -39 24 -34 2 3 -2 14 -10 24 -8 11 -14 16 -14
10z"/>
<path d="M3426 5500 c7 -40 24 -76 23 -50 0 8 -7 31 -15 50 l-14 35 6 -35z"/>
<path d="M6576 5515 c-9 -26 -7 -32 5 -12 6 10 9 21 6 23 -2 3 -7 -2 -11 -11z"/>
<path d="M3500 5516 c0 -2 7 -7 16 -10 8 -3 12 -2 9 4 -6 10 -25 14 -25 6z"/>
<path d="M3157 5475 c9 -19 18 -33 21 -31 4 5 -26 66 -33 66 -3 0 3 -16 12
-35z"/>
<path d="M7008 5457 c-2 -33 1 -54 8 -54 6 0 9 19 6 51 -6 68 -9 69 -14 3z"/>
<path d="M7040 5506 c0 -2 7 -7 16 -10 8 -3 12 -2 9 4 -6 10 -25 14 -25 6z"/>
<path d="M3656 5487 c3 -10 9 -15 12 -12 3 3 0 11 -7 18 -10 9 -11 8 -5 -6z"/>
<path d="M7620 5479 c-22 -18 -22 -19 -3 -10 12 6 25 16 28 21 9 15 3 12 -25
-11z"/>
<path d="M5080 5476 c0 -2 7 -7 16 -10 8 -3 12 -2 9 4 -6 10 -25 14 -25 6z"/>
<path d="M6556 5465 c-9 -26 -7 -32 5 -12 6 10 9 21 6 23 -2 3 -7 -2 -11 -11z"/>
<path d="M3036 5455 c4 -8 11 -15 16 -15 6 0 5 6 -2 15 -7 8 -14 15 -16 15 -2
0 -1 -7 2 -15z"/>
<path d="M7552 5443 c-18 -8 -31 -18 -28 -20 5 -5 66 25 66 32 0 7 -1 7 -38
-12z"/>
<path d="M2685 5440 c3 -4 14 -10 25 -13 11 -3 18 -2 15 3 -3 4 -14 10 -25 13
-11 3 -18 2 -15 -3z"/>
<path d="M6610 5440 c0 -5 5 -10 11 -10 5 0 7 5 4 10 -3 6 -8 10 -11 10 -2 0
-4 -4 -4 -10z"/>
<path d="M3451 5420 c0 -8 9 -33 20 -55 10 -22 16 -29 13 -16 -10 37 -33 88
-33 71z"/>
<path d="M2750 5410 c8 -5 22 -9 30 -9 10 0 8 3 -5 9 -27 12 -43 12 -25 0z"/>
<path d="M2800 5401 c0 -8 120 -34 126 -28 2 2 -26 10 -61 19 -36 8 -65 12
-65 9z"/>
<path d="M7446 5402 c-3 -5 -38 -15 -78 -22 -40 -7 -68 -15 -62 -17 12 -4 142
22 151 31 4 3 4 9 1 12 -3 3 -8 1 -12 -4z"/>
<path d="M6531 5384 c0 -11 3 -14 6 -6 3 7 2 16 -1 19 -3 4 -6 -2 -5 -13z"/>
<path d="M6664 5361 c20 -22 26 -25 26 -13 0 4 -10 13 -22 21 -23 14 -23 14
-4 -8z"/>
<path d="M6636 5357 c3 -10 9 -15 12 -12 3 3 0 11 -7 18 -10 9 -11 8 -5 -6z"/>
<path d="M2998 5353 c6 -2 18 -2 25 0 6 3 1 5 -13 5 -14 0 -19 -2 -12 -5z"/>
<path d="M3040 5350 c0 -6 7 -10 15 -10 8 0 15 2 15 4 0 2 -7 6 -15 10 -8 3
-15 1 -15 -4z"/>
<path d="M6521 5344 c0 -11 3 -14 6 -6 3 7 2 16 -1 19 -3 4 -6 -2 -5 -13z"/>
<path d="M7248 5353 c7 -3 16 -2 19 1 4 3 -2 6 -13 5 -11 0 -14 -3 -6 -6z"/>
<path d="M3120 5323 c8 -3 24 -10 35 -16 18 -9 19 -9 6 6 -7 10 -23 17 -35 16
-14 0 -16 -2 -6 -6z"/>
<path d="M6950 5310 c-6 -11 -8 -20 -6 -20 3 0 10 9 16 20 6 11 8 20 6 20 -3
0 -10 -9 -16 -20z"/>
<path d="M7110 5320 c-8 -5 -10 -10 -5 -10 6 0 17 5 25 10 8 5 11 10 5 10 -5
0 -17 -5 -25 -10z"/>
<path d="M3495 5310 c3 -5 8 -10 11 -10 2 0 4 5 4 10 0 6 -5 10 -11 10 -5 0
-7 -4 -4 -10z"/>
<path d="M6512 5300 c0 -14 2 -19 5 -12 2 6 2 18 0 25 -3 6 -5 1 -5 -13z"/>
<path d="M3180 5303 c0 -5 12 -16 28 -25 15 -9 37 -26 50 -38 12 -11 22 -16
22 -11 0 6 -9 15 -20 21 -11 6 -17 16 -14 22 4 6 3 8 -3 5 -6 -4 -22 3 -37 14
-14 11 -26 17 -26 12z"/>
<path d="M5176 5283 c-6 -14 -5 -15 5 -6 7 7 10 15 7 18 -3 3 -9 -2 -12 -12z"/>
<path d="M3530 5252 c12 -18 25 -31 28 -27 3 3 -7 18 -23 33 l-28 27 23 -33z"/>
<path d="M6950 5214 c-67 -56 -85 -75 -45 -46 37 26 112 91 105 91 -3 0 -30
-20 -60 -45z"/>
<path d="M3330 5181 c14 -11 32 -20 40 -20 10 1 10 3 -3 6 -10 3 -14 10 -11
16 4 7 4 9 -1 5 -4 -4 -17 -3 -29 3 -17 8 -16 6 4 -10z"/>
<path d="M3605 5159 c48 -51 76 -79 83 -79 8 0 -71 85 -98 104 -14 11 -7 0 15
-25z"/>
<path d="M6476 5165 c-9 -26 -7 -32 5 -12 6 10 9 21 6 23 -2 3 -7 -2 -11 -11z"/>
<path d="M7246 5143 c-6 -14 -5 -15 5 -6 7 7 10 15 7 18 -3 3 -9 -2 -12 -12z"/>
<path d="M6849 5133 c-13 -16 -12 -17 4 -4 9 7 17 15 17 17 0 8 -8 3 -21 -13z"/>
<path d="M2751 5127 c8 -7 35 -28 60 -48 43 -35 119 -82 119 -74 0 2 -31 24
-68 49 -37 24 -76 54 -86 65 -11 12 -24 21 -30 21 -6 0 -4 -6 5 -13z"/>
<path d="M6790 5105 c-16 -19 -1 -19 24 0 16 12 17 15 4 15 -8 0 -21 -7 -28
-15z"/>
<path d="M7415 5086 c-22 -18 -71 -51 -110 -74 -38 -23 -66 -42 -61 -42 12 0
165 95 201 125 17 14 26 25 20 25 -5 0 -28 -15 -50 -34z"/>
<path d="M6567 5093 c-4 -3 -7 -11 -7 -17 0 -6 5 -5 12 2 6 6 9 14 7 17 -3 3
-9 2 -12 -2z"/>
<path d="M3695 5060 c3 -5 14 -10 23 -10 15 0 15 2 2 10 -20 13 -33 13 -25 0z"/>
<path d="M6719 5049 c-23 -19 -23 -20 -2 -10 12 6 25 16 28 21 10 16 -1 12
-26 -11z"/>
<path d="M6785 5040 c-3 -5 -1 -10 4 -10 6 0 11 5 11 10 0 6 -2 10 -4 10 -3 0
-8 -4 -11 -10z"/>
<path d="M3565 5020 c3 -5 8 -10 11 -10 2 0 4 5 4 10 0 6 -5 10 -11 10 -5 0
-7 -4 -4 -10z"/>
<path d="M3598 5003 c7 -3 16 -2 19 1 4 3 -2 6 -13 5 -11 0 -14 -3 -6 -6z"/>
<path d="M6910 5000 c-21 -7 -21 -8 -5 -9 11 0 27 4 35 9 18 11 5 11 -30 0z"/>
<path d="M3645 4970 c3 -5 14 -10 23 -10 15 0 15 2 2 10 -20 13 -33 13 -25 0z"/>
<path d="M7183 4968 c3 -9 1 -19 -6 -22 -7 -3 -1 -3 13 0 14 4 30 11 35 17 7
7 4 8 -9 3 -12 -4 -23 -1 -29 6 -6 10 -7 8 -4 -4z"/>
<path d="M3065 4941 c62 -28 215 -58 215 -42 0 4 -19 8 -42 9 -49 3 -106 16
-161 38 -52 20 -61 16 -12 -5z"/>
<path d="M3738 4953 c7 -3 16 -2 19 1 4 3 -2 6 -13 5 -11 0 -14 -3 -6 -6z"/>
<path d="M3678 4943 c7 -3 16 -2 19 1 4 3 -2 6 -13 5 -11 0 -14 -3 -6 -6z"/>
<path d="M3613 4933 c9 -2 23 -2 30 0 6 3 -1 5 -18 5 -16 0 -22 -2 -12 -5z"/>
<path d="M3750 4930 c19 -4 49 -10 65 -14 l30 -6 -30 14 c-16 9 -46 15 -65 14
l-35 0 35 -8z"/>
<path d="M6455 4924 l-30 -13 30 6 c32 6 41 11 34 17 -2 2 -17 -2 -34 -10z"/>
<path d="M6573 4933 c9 -2 25 -2 35 0 9 3 1 5 -18 5 -19 0 -27 -2 -17 -5z"/>
<path d="M3510 4920 c-17 -6 -9 -7 25 -3 28 3 52 7 54 9 8 7 -54 2 -79 -6z"/>
<path d="M6668 4923 c6 -2 18 -2 25 0 6 3 1 5 -13 5 -14 0 -19 -2 -12 -5z"/>
<path d="M7108 4923 c7 -3 16 -2 19 1 4 3 -2 6 -13 5 -11 0 -14 -3 -6 -6z"/>
<path d="M6405 4910 c-3 -5 -1 -10 4 -10 6 0 11 5 11 10 0 6 -2 10 -4 10 -3 0
-8 -4 -11 -10z"/>
<path d="M6748 4913 c6 -2 18 -2 25 0 6 3 1 5 -13 5 -14 0 -19 -2 -12 -5z"/>
<path d="M6950 4908 c0 -10 88 -8 120 2 17 6 2 8 -47 7 -40 -1 -73 -5 -73 -9z"/>
<path d="M3418 4903 c12 -2 32 -2 45 0 12 2 2 4 -23 4 -25 0 -35 -2 -22 -4z"/>
<path d="M3860 4900 c8 -5 20 -10 25 -10 6 0 3 5 -5 10 -8 5 -19 10 -25 10 -5
0 -3 -5 5 -10z"/>
<path d="M6367 4899 c7 -7 15 -10 18 -7 3 3 -2 9 -12 12 -14 6 -15 5 -6 -5z"/>
<path d="M6813 4903 c15 -2 37 -2 50 0 12 2 0 4 -28 4 -27 0 -38 -2 -22 -4z"/>
<path d="M3313 4893 c9 -2 25 -2 35 0 9 3 1 5 -18 5 -19 0 -27 -2 -17 -5z"/>
<path d="M6333 4893 c4 -4 -50 -26 -120 -49 -70 -23 -123 -43 -117 -43 14 -1
264 78 264 83 0 2 -8 7 -17 10 -10 4 -14 4 -10 -1z"/>
<path d="M6918 4893 c7 -3 16 -2 19 1 4 3 -2 6 -13 5 -11 0 -14 -3 -6 -6z"/>
<path d="M3920 4875 c14 -8 30 -14 35 -14 6 0 -1 6 -15 14 -14 8 -29 14 -35
14 -5 0 1 -6 15 -14z"/>
<path d="M3980 4850 c8 -5 20 -10 25 -10 6 0 3 5 -5 10 -8 5 -19 10 -25 10 -5
0 -3 -5 5 -10z"/>
<path d="M4065 4820 c11 -5 27 -9 35 -9 9 0 8 4 -5 9 -11 5 -27 9 -35 9 -9 0
-8 -4 5 -9z"/>
<path d="M4121 4806 c9 -8 161 -57 166 -53 4 5 -35 20 -118 46 -36 11 -56 14
-48 7z"/>
<path d="M6035 4790 c-13 -5 -14 -9 -5 -9 8 0 24 4 35 9 13 5 14 9 5 9 -8 0
-24 -4 -35 -9z"/>
<path d="M5924 4760 c-12 -5 -34 -11 -50 -14 -16 -2 -46 -10 -67 -16 -22 -6
-46 -9 -55 -5 -9 3 -13 2 -8 -2 4 -4 -14 -13 -41 -20 -26 -6 -38 -12 -26 -12
12 -1 81 15 155 34 151 40 161 43 133 44 -11 0 -30 -4 -41 -9z"/>
<path d="M4308 4743 c7 -3 16 -2 19 1 4 3 -2 6 -13 5 -11 0 -14 -3 -6 -6z"/>
<path d="M4355 4740 c-16 -7 -17 -9 -3 -9 9 -1 20 4 23 9 7 11 7 11 -20 0z"/>
<path d="M4435 4710 c11 -5 29 -8 40 -8 16 0 15 2 -5 8 -34 11 -60 11 -35 0z"/>
<path d="M4544 4684 c26 -9 50 -13 53 -10 6 5 -65 26 -87 25 -8 0 7 -7 34 -15z"/>
<path d="M5542 4667 c-40 -11 -71 -22 -69 -24 7 -6 147 31 147 39 0 4 -1 7 -2
7 -2 -1 -36 -11 -76 -22z"/>
<path d="M4640 4660 c14 -4 34 -8 45 -8 16 0 15 2 -5 8 -14 4 -34 8 -45 8 -16
0 -15 -2 5 -8z"/>
<path d="M4720 4650 c-13 -8 -12 -10 3 -10 9 0 17 5 17 10 0 12 -1 12 -20 0z"/>
<path d="M5416 4639 c3 -5 -3 -9 -12 -9 -10 0 -15 -3 -12 -6 3 -3 21 -1 39 4
l34 8 -27 6 c-15 3 -25 1 -22 -3z"/>
<path d="M4775 4630 c17 -4 39 -8 50 -8 l20 -1 -20 9 c-11 5 -33 8 -50 8 l-30
0 30 -8z"/>
<path d="M4896 4607 c46 -16 119 -29 111 -20 -6 5 -42 14 -117 27 -33 6 -33 6
6 -7z"/>
<path d="M5320 4609 c-61 -17 -90 -31 -84 -41 4 -7 9 -7 13 -1 3 6 35 19 71
30 65 21 65 29 0 12z"/>
<path d="M5090 4518 c0 -5 11 -6 25 -2 16 4 37 -1 60 -15 50 -29 59 -26 10 4
-37 23 -95 31 -95 13z"/>
<path d="M4997 4484 c2 -6 -6 -14 -18 -17 -13 -4 -20 -9 -17 -12 3 -4 27 5 53
19 l47 25 -34 -2 c-21 -1 -34 -6 -31 -13z"/>
<path d="M5244 4465 c22 -17 40 -20 32 -6 -3 5 -16 11 -28 14 -22 6 -22 5 -4
-8z"/>
<path d="M5290 4447 c0 -3 29 -24 64 -47 36 -23 106 -77 158 -121 51 -43 95
-79 99 -79 3 0 14 10 25 23 l19 22 -22 -18 c-21 -19 -22 -18 -65 20 -23 21
-55 50 -71 66 -16 15 -33 27 -38 27 -6 0 -7 5 -4 11 4 6 1 9 -6 7 -8 -1 -41
16 -74 38 -73 49 -85 56 -85 51z"/>
<path d="M4906 4425 c-11 -8 -16 -15 -10 -15 5 0 18 7 28 15 11 8 16 15 10 15
-5 0 -18 -7 -28 -15z"/>
<path d="M4787 4335 c-16 -14 -33 -23 -38 -19 -5 3 -8 2 -7 -3 4 -13 -45 -64
-57 -59 -6 2 -12 -5 -12 -15 -1 -14 19 0 73 48 41 37 74 69 74 70 0 6 -5 2
-33 -22z"/>
<path d="M4540 4305 c22 -32 74 -86 92 -96 11 -6 19 -5 24 3 5 7 3 8 -5 3 -8
-5 -33 14 -69 51 -30 33 -49 50 -42 39z"/>
<path d="M5691 4290 c-13 -11 -19 -20 -14 -20 6 0 18 9 28 20 23 25 17 25 -14
0z"/>
<path d="M1883 3594 c-7 -19 21 -44 46 -43 9 0 3 5 -12 11 -21 7 -26 15 -22
29 8 23 -3 26 -12 3z"/>
<path d="M3308 3603 c7 -3 16 -2 19 1 4 3 -2 6 -13 5 -11 0 -14 -3 -6 -6z"/>
<path d="M3348 3603 c7 -3 16 -2 19 1 4 3 -2 6 -13 5 -11 0 -14 -3 -6 -6z"/>
<path d="M3396 3601 c-4 -5 3 -7 14 -4 23 6 26 13 6 13 -8 0 -17 -4 -20 -9z"/>
<path d="M3470 3600 c0 -5 4 -10 9 -10 6 0 13 5 16 10 3 6 -1 10 -9 10 -9 0
-16 -4 -16 -10z"/>
<path d="M3538 3603 c6 -2 18 -2 25 0 6 3 1 5 -13 5 -14 0 -19 -2 -12 -5z"/>
<path d="M3580 3606 c0 -2 11 -6 25 -8 13 -3 22 -1 19 3 -5 9 -44 13 -44 5z"/>
<path d="M2251 3577 c-13 -21 -12 -21 5 -5 10 10 16 20 13 22 -3 3 -11 -5 -18
-17z"/>
<path d="M2523 3586 c1 -11 9 -21 17 -23 10 -3 11 -2 4 4 -6 4 -14 15 -17 23
-5 11 -6 9 -4 -4z"/>
<path d="M3161 3579 c-1 -17 5 -29 15 -33 13 -5 14 -3 6 6 -5 7 -12 22 -15 33
-4 16 -5 14 -6 -6z"/>
<path d="M7751 3590 c-1 -21 18 -40 40 -40 36 0 49 -39 49 -142 0 -54 3 -98 8
-98 4 0 7 48 7 108 0 114 -2 118 -58 138 -15 5 -16 9 -5 16 9 6 6 7 -9 3 -15
-4 -23 -1 -26 12 -3 13 -5 14 -6 3z"/>
<path d="M4066 3575 c4 -8 8 -15 10 -15 2 0 4 7 4 15 0 8 -4 15 -10 15 -5 0
-7 -7 -4 -15z"/>
<path d="M5920 3580 c0 -15 21 -23 32 -12 6 6 2 11 -11 15 -12 3 -21 1 -21 -3z"/>
<path d="M6922 3581 c2 -8 19 -20 37 -26 17 -6 36 -17 41 -25 5 -8 10 -10 10
-4 0 15 -19 30 -50 39 -14 4 -29 13 -33 19 -6 7 -7 6 -5 -3z"/>
<path d="M2796 3561 c-4 -5 3 -7 14 -4 23 6 26 13 6 13 -8 0 -17 -4 -20 -9z"/>
<path d="M5970 3562 c0 -4 10 -12 23 -17 l22 -10 5 -365 c4 -278 6 -320 9
-175 1 105 2 241 1 304 -1 92 1 112 12 105 10 -6 10 -4 -1 9 -7 9 -11 29 -8
43 8 42 -10 89 -38 102 -14 6 -25 8 -25 4z"/>
<path d="M1455 3553 c-71 -16 -95 -25 -95 -33 0 -5 16 -2 35 6 39 16 144 19
193 5 17 -5 32 -6 32 -1 0 12 -132 31 -165 23z"/>
<path d="M2195 3550 c-3 -6 1 -7 9 -4 18 7 21 14 7 14 -6 0 -13 -4 -16 -10z"/>
<path d="M3972 3535 c0 -16 2 -22 5 -12 2 9 2 23 0 30 -3 6 -5 -1 -5 -18z"/>
<path d="M4100 3553 c8 -3 23 -12 33 -21 16 -14 17 -43 17 -349 0 -183 3 -333
8 -333 4 0 6 43 5 95 -2 68 1 95 10 95 7 0 6 4 -3 10 -12 8 -13 11 -1 19 8 5
9 11 3 15 -6 3 -10 65 -10 147 0 127 1 140 16 135 15 -5 15 -4 0 8 -14 10 -18
28 -18 85 0 54 -4 73 -15 77 -8 4 -13 9 -11 13 3 4 -7 7 -22 8 -15 1 -20 -1
-12 -4z"/>
<path d="M4380 3549 c0 -5 14 -9 32 -9 36 0 31 11 -7 15 -14 2 -25 -1 -25 -6z"/>
<path d="M6198 3549 c4 -4 48 -9 97 -12 53 -4 82 -3 69 3 -24 10 -177 18 -166
9z"/>
<path d="M8014 3548 c-3 -5 19 -8 49 -8 30 0 70 -2 88 -5 l34 -5 -30 10 c-37
13 -135 18 -141 8z"/>
<path d="M8930 3550 c0 -4 28 -10 62 -12 58 -4 64 -7 100 -47 21 -24 43 -62
48 -85 16 -59 20 -70 26 -63 9 9 -19 90 -45 131 -14 22 -42 47 -61 57 -36 18
-130 32 -130 19z"/>
<path d="M9205 3550 c4 -7 2 -16 -6 -21 -11 -7 -10 -9 4 -9 19 0 23 25 5 36
-7 5 -8 3 -3 -6z"/>
<path d="M1950 3539 c0 -5 5 -7 10 -4 6 3 10 8 10 11 0 2 -4 4 -10 4 -5 0 -10
-5 -10 -11z"/>
<path d="M2595 3530 c21 -24 26 -25 19 -6 -3 8 -13 17 -22 21 -13 5 -13 2 3
-15z"/>
<path d="M2751 3534 c-7 -8 -11 -17 -9 -20 3 -2 13 5 23 16 10 11 14 20 9 20
-5 -1 -15 -8 -23 -16z"/>
<path d="M3570 3540 c0 -5 5 -10 11 -10 5 0 7 5 4 10 -3 6 -8 10 -11 10 -2 0
-4 -4 -4 -10z"/>
<path d="M7245 3543 c-22 -3 -43 -8 -48 -12 -4 -4 15 -5 43 -1 27 3 53 9 57
13 3 4 2 6 -3 5 -5 -1 -27 -3 -49 -5z"/>
<path d="M8310 3540 c-9 -6 -10 -10 -3 -10 6 0 15 5 18 10 8 12 4 12 -15 0z"/>
<path d="M1762 3520 c0 -14 2 -19 5 -12 2 6 2 18 0 25 -3 6 -5 1 -5 -13z"/>
<path d="M3161 3458 c0 -50 3 -75 8 -63 4 11 6 40 4 64 -2 25 1 47 6 50 5 3 3
12 -5 19 -12 11 -14 0 -13 -70z"/>
<path d="M3310 3525 c-19 -7 -28 -14 -20 -14 8 0 29 6 45 14 39 17 21 18 -25
0z"/>
<path d="M3428 3533 l62 -4 1 -342 c0 -188 3 -335 6 -327 3 8 11 18 17 22 8 5
7 8 -1 8 -10 0 -13 60 -13 265 0 205 3 265 13 265 9 0 9 2 0 8 -6 4 -13 30
-15 57 l-3 50 -65 1 -65 1 63 -4z"/>
<path d="M3693 3533 c9 -2 23 -2 30 0 6 3 -1 5 -18 5 -16 0 -22 -2 -12 -5z"/>
<path d="M3785 3531 c54 -13 88 -35 106 -71 11 -19 19 -29 19 -23 0 47 -75
105 -133 102 -17 -1 -15 -3 8 -8z"/>
<path d="M4471 3530 c39 -12 78 -40 85 -62 3 -11 8 -17 11 -15 19 19 -63 88
-102 86 -16 -1 -15 -2 6 -9z"/>
<path d="M5294 3493 c-9 -27 -23 -63 -31 -82 -7 -19 -11 -36 -9 -38 3 -3 12
18 22 45 10 27 23 49 28 48 6 -2 8 -1 4 1 -5 3 -8 11 -8 19 0 9 3 13 8 11 4
-3 8 6 8 19 3 35 -2 30 -22 -23z"/>
<path d="M7333 3533 c15 -2 39 -2 55 0 15 2 2 4 -28 4 -30 0 -43 -2 -27 -4z"/>
<path d="M8873 3523 c-13 -8 -23 -20 -23 -26 0 -6 10 -1 23 10 12 11 29 23 37
26 13 5 13 5 0 6 -8 0 -25 -7 -37 -16z"/>
<path d="M1179 3513 c-13 -16 -12 -17 4 -4 9 7 17 15 17 17 0 8 -8 3 -21 -13z"/>
<path d="M6420 3521 c0 -3 21 -17 46 -30 25 -14 57 -42 72 -62 15 -21 31 -39
35 -39 11 0 -24 48 -55 78 -27 25 -98 64 -98 53z"/>
<path d="M7435 3523 c38 -10 60 -33 77 -81 9 -26 17 -38 18 -28 0 11 -9 39
-20 62 -20 40 -43 55 -80 53 -8 -1 -6 -4 5 -6z"/>
<path d="M1658 3492 c18 -16 39 -45 47 -64 9 -22 14 -27 15 -14 0 24 -43 82
-73 97 -15 8 -11 2 11 -19z"/>
<path d="M1976 3507 c3 -10 9 -15 12 -12 3 3 0 11 -7 18 -10 9 -11 8 -5 -6z"/>
<path d="M8197 3514 c25 -11 57 -79 64 -138 l7 -61 -1 68 c-1 37 -5 67 -9 67
-5 0 -8 6 -8 13 0 15 -42 57 -56 56 -5 0 -4 -3 3 -5z"/>
<path d="M8301 3507 c2 -1 13 -9 24 -17 19 -14 19 -14 6 3 -7 9 -18 17 -24 17
-6 0 -8 -1 -6 -3z"/>
<path d="M2171 3484 c0 -11 3 -14 6 -6 3 7 2 16 -1 19 -3 4 -6 -2 -5 -13z"/>
<path d="M3555 3490 c-3 -5 -1 -10 4 -10 6 0 11 5 11 10 0 6 -2 10 -4 10 -3 0
-8 -4 -11 -10z"/>
<path d="M3973 3455 c0 -27 2 -38 4 -22 2 15 2 37 0 50 -2 12 -4 0 -4 -28z"/>
<path d="M5346 3488 c3 -5 10 -6 15 -3 13 9 11 12 -6 12 -8 0 -12 -4 -9 -9z"/>
<path d="M1310 3480 c-8 -5 -12 -12 -9 -15 4 -3 12 1 19 10 14 17 11 19 -10 5z"/>
<path d="M1766 3473 c-6 -14 -5 -15 5 -6 7 7 10 15 7 18 -3 3 -9 -2 -12 -12z"/>
<path d="M8696 3475 c-3 -9 -6 -24 -5 -33 0 -9 5 -4 10 12 9 32 6 48 -5 21z"/>
<path d="M2019 3398 c27 -79 50 -132 51 -117 0 13 -62 185 -71 194 -5 5 4 -30
20 -77z"/>
<path d="M4185 3471 c-3 -5 -2 -12 3 -15 5 -3 9 1 9 9 0 17 -3 19 -12 6z"/>
<path d="M6058 3463 c7 -3 16 -2 19 1 4 3 -2 6 -13 5 -11 0 -14 -3 -6 -6z"/>
<path d="M1238 3453 c7 -3 16 -2 19 1 4 3 -2 6 -13 5 -11 0 -14 -3 -6 -6z"/>
<path d="M3632 3446 c7 -8 15 -12 17 -11 5 6 -10 25 -20 25 -5 0 -4 -6 3 -14z"/>
<path d="M5440 3446 c0 -2 7 -7 16 -10 8 -3 12 -2 9 4 -6 10 -25 14 -25 6z"/>
<path d="M6130 3440 c0 -5 5 -10 11 -10 5 0 7 5 4 10 -3 6 -8 10 -11 10 -2 0
-4 -4 -4 -10z"/>
<path d="M4572 3375 c0 -64 1 -66 8 -28 5 23 5 54 0 70 -6 21 -8 12 -8 -42z"/>
<path d="M5360 3429 c0 -5 5 -7 10 -4 6 3 10 8 10 11 0 2 -4 4 -10 4 -5 0 -10
-5 -10 -11z"/>
<path d="M3912 3400 c0 -14 2 -19 5 -12 2 6 2 18 0 25 -3 6 -5 1 -5 -13z"/>
<path d="M4255 3400 c-3 -6 1 -7 9 -4 18 7 21 14 7 14 -6 0 -13 -4 -16 -10z"/>
<path d="M7191 3394 c0 -11 3 -14 6 -6 3 7 2 16 -1 19 -3 4 -6 -2 -5 -13z"/>
<path d="M8682 3390 c0 -14 2 -19 5 -12 2 6 2 18 0 25 -3 6 -5 1 -5 -13z"/>
<path d="M1720 3376 c0 -8 4 -17 9 -20 5 -4 7 3 4 14 -6 23 -13 26 -13 6z"/>
<path d="M5372 3380 c-1 -8 5 -26 13 -40 14 -25 14 -25 15 -2 0 12 -4 22 -9
22 -5 0 -12 8 -14 18 -3 12 -5 12 -5 2z"/>
<path d="M7548 3383 c6 -2 18 -2 25 0 6 3 1 5 -13 5 -14 0 -19 -2 -12 -5z"/>
<path d="M2645 3356 c10 -14 19 -26 22 -26 7 0 -17 39 -28 46 -6 3 -3 -5 6
-20z"/>
<path d="M3926 3372 c-3 -6 -1 -14 5 -17 14 -9 20 -2 10 14 -6 8 -11 9 -15 3z"/>
<path d="M6580 3369 c1 -8 7 -25 15 -39 13 -22 14 -23 14 -5 0 11 -6 29 -14
39 -11 14 -15 16 -15 5z"/>
<path d="M3178 3363 c6 -2 18 -2 25 0 6 3 1 5 -13 5 -14 0 -19 -2 -12 -5z"/>
<path d="M4761 3354 c0 -11 3 -14 6 -6 3 7 2 16 -1 19 -3 4 -6 -2 -5 -13z"/>
<path d="M4323 3300 c0 -36 2 -50 4 -32 2 17 2 47 0 65 -2 17 -4 3 -4 -33z"/>
<path d="M5236 3345 c-9 -26 -7 -32 5 -12 6 10 9 21 6 23 -2 3 -7 -2 -11 -11z"/>
<path d="M9180 3350 c0 -5 6 -10 14 -10 8 0 18 5 21 10 3 6 -3 10 -14 10 -12
0 -21 -4 -21 -10z"/>
<path d="M2560 3307 c0 -3 -9 -29 -20 -57 -11 -28 -16 -49 -11 -46 11 7 43 98
36 104 -3 3 -5 2 -5 -1z"/>
<path d="M5202 3253 c-12 -31 -20 -59 -18 -61 2 -2 14 22 25 54 12 31 20 58
18 61 -2 2 -14 -22 -25 -54z"/>
<path d="M5405 3288 c27 -90 68 -208 72 -204 5 5 -67 226 -74 226 -2 0 -1 -10
2 -22z"/>
<path d="M4236 3283 c-6 -14 -5 -15 5 -6 7 7 10 15 7 18 -3 3 -9 -2 -12 -12z"/>
<path d="M6611 3284 c0 -11 3 -14 6 -6 3 7 2 16 -1 19 -3 4 -6 -2 -5 -13z"/>
<path d="M7842 3138 c0 -90 2 -154 5 -143 3 11 10 23 17 27 7 5 7 8 0 8 -15 0
-16 160 -1 160 8 0 8 3 2 8 -13 9 -18 62 -6 62 5 0 7 9 4 20 -14 54 -22 5 -21
-142z"/>
<path d="M3640 3275 c0 -8 2 -15 4 -15 2 0 6 7 10 15 3 8 1 15 -4 15 -6 0 -10
-7 -10 -15z"/>
<path d="M8249 3273 c-13 -16 -12 -17 4 -4 9 7 17 15 17 17 0 8 -8 3 -21 -13z"/>
<path d="M8714 3265 c13 -28 86 -106 86 -93 0 3 -17 23 -37 44 -21 22 -44 48
-51 59 -7 11 -6 7 2 -10z"/>
<path d="M5283 3265 c-3 -9 -3 -18 -1 -21 3 -3 8 4 11 16 6 23 -1 27 -10 5z"/>
<path d="M7958 3273 c7 -3 16 -2 19 1 4 3 -2 6 -13 5 -11 0 -14 -3 -6 -6z"/>
<path d="M8012 3260 c0 -14 2 -19 5 -12 2 6 2 18 0 25 -3 6 -5 1 -5 -13z"/>
<path d="M4545 3250 c-10 -11 -15 -20 -12 -20 4 0 16 9 27 20 11 11 16 20 12
20 -5 0 -17 -9 -27 -20z"/>
<path d="M6676 3257 c3 -10 9 -15 12 -12 3 3 0 11 -7 18 -10 9 -11 8 -5 -6z"/>
<path d="M1031 3244 c0 -11 3 -14 6 -6 3 7 2 16 -1 19 -3 4 -6 -2 -5 -13z"/>
<path d="M6620 3219 c0 -22 4 -38 8 -35 8 5 4 76 -4 76 -2 0 -4 -18 -4 -41z"/>
<path d="M2150 3246 c0 -2 7 -7 16 -10 8 -3 12 -2 9 4 -6 10 -25 14 -25 6z"/>
<path d="M2616 3235 c-9 -26 -7 -32 5 -12 6 10 9 21 6 23 -2 3 -7 -2 -11 -11z"/>
<path d="M8214 3228 l-19 -23 23 19 c12 11 22 21 22 23 0 8 -8 2 -26 -19z"/>
<path d="M2084 3225 c23 -66 60 -155 63 -151 4 4 -56 158 -64 166 -4 3 -3 -4
1 -15z"/>
<path d="M6720 3231 c0 -5 7 -12 16 -15 14 -5 15 -4 4 9 -14 17 -20 19 -20 6z"/>
<path d="M3540 3216 c0 -2 8 -10 18 -17 15 -13 16 -12 3 4 -13 16 -21 21 -21
13z"/>
<path d="M8380 3209 c0 -5 5 -7 10 -4 6 3 10 8 10 11 0 2 -4 4 -10 4 -5 0 -10
-5 -10 -11z"/>
<path d="M1110 3200 c-9 -6 -10 -10 -3 -10 6 0 15 5 18 10 8 12 4 12 -15 0z"/>
<path d="M1175 3200 c-3 -5 -1 -10 4 -10 6 0 11 5 11 10 0 6 -2 10 -4 10 -3 0
-8 -4 -11 -10z"/>
<path d="M2186 3202 c-3 -5 1 -9 9 -9 8 0 12 4 9 9 -3 4 -7 8 -9 8 -2 0 -6 -4
-9 -8z"/>
<path d="M7230 3200 c0 -5 5 -10 11 -10 5 0 7 5 4 10 -3 6 -8 10 -11 10 -2 0
-4 -4 -4 -10z"/>
<path d="M8349 3190 c-9 -10 -23 -20 -30 -22 -8 -3 -12 -8 -9 -11 3 -3 19 5
35 18 17 13 28 25 25 27 -3 3 -12 -3 -21 -12z"/>
<path d="M1037 3183 c-4 -3 -7 -29 -7 -56 0 -28 3 -47 7 -43 4 3 6 25 4 48 -1
25 3 44 11 49 7 5 8 9 2 9 -6 0 -14 -3 -17 -7z"/>
<path d="M2587 3173 c3 -7 6 -13 8 -13 2 0 5 6 8 13 3 8 -1 14 -8 14 -7 0 -11
-6 -8 -14z"/>
<path d="M2502 3151 c-6 -17 -9 -31 -6 -31 7 0 25 52 20 57 -2 2 -8 -10 -14
-26z"/>
<path d="M4617 3164 c-16 -9 -27 -18 -24 -21 6 -5 67 24 67 32 0 8 -14 5 -43
-11z"/>
<path d="M5166 3165 c-9 -26 -7 -32 5 -12 6 10 9 21 6 23 -2 3 -7 -2 -11 -11z"/>
<path d="M8835 3149 c36 -24 121 -69 132 -69 4 0 -28 20 -71 45 -84 48 -111
58 -61 24z"/>
<path d="M2576 3133 c-6 -14 -5 -15 5 -6 7 7 10 15 7 18 -3 3 -9 -2 -12 -12z"/>
<path d="M7190 3133 c0 -12 3 -14 8 -6 4 7 37 14 72 16 l65 3 -72 2 c-64 2
-73 0 -73 -15z"/>
<path d="M7372 3133 c29 -12 41 -25 52 -57 15 -40 16 -40 10 -6 -6 39 -42 75
-76 77 -16 0 -12 -4 14 -14z"/>
<path d="M7482 3130 c0 -14 2 -19 5 -12 2 6 2 18 0 25 -3 6 -5 1 -5 -13z"/>
<path d="M8278 3143 c7 -3 16 -2 19 1 4 3 -2 6 -13 5 -11 0 -14 -3 -6 -6z"/>
<path d="M4323 3128 c-8 -14 -6 -109 3 -118 3 -3 4 15 3 40 l-3 45 44 -1 c35
-1 48 -6 66 -30 13 -15 26 -26 29 -22 3 3 -10 19 -30 37 -28 24 -45 31 -77 31
-35 0 -39 2 -28 15 7 8 10 15 7 15 -3 0 -9 -6 -14 -12z"/>
<path d="M4555 3130 c-3 -6 1 -7 9 -4 18 7 21 14 7 14 -6 0 -13 -4 -16 -10z"/>
<path d="M6087 3119 c7 -7 15 -10 18 -7 3 3 -2 9 -12 12 -14 6 -15 5 -6 -5z"/>
<path d="M6620 3103 c0 -16 -3 -38 -6 -50 -4 -13 -2 -23 3 -23 5 0 10 19 12
42 1 23 4 45 7 50 3 4 0 8 -5 8 -6 0 -11 -12 -11 -27z"/>
<path d="M3617 3109 c7 -7 15 -10 18 -7 3 3 -2 9 -12 12 -14 6 -15 5 -6 -5z"/>
<path d="M9060 3116 c0 -2 8 -10 18 -17 15 -13 16 -12 3 4 -13 16 -21 21 -21
13z"/>
<path d="M2561 3094 c0 -11 3 -14 6 -6 3 7 2 16 -1 19 -3 4 -6 -2 -5 -13z"/>
<path d="M8058 3103 c6 -2 18 -2 25 0 6 3 1 5 -13 5 -14 0 -19 -2 -12 -5z"/>
<path d="M5615 3090 c3 -5 8 -10 11 -10 2 0 4 5 4 10 0 6 -5 10 -11 10 -5 0
-7 -4 -4 -10z"/>
<path d="M8128 3065 c15 -18 32 -40 39 -51 6 -10 12 -14 12 -7 1 7 -12 28 -29
46 -16 19 -27 36 -25 39 3 3 -2 5 -10 5 -10 0 -6 -10 13 -32z"/>
<path d="M2467 3061 c-4 -17 -3 -21 5 -13 5 5 8 16 6 23 -3 8 -7 3 -11 -10z"/>
<path d="M8980 3075 c0 -2 15 -12 33 -20 l32 -16 -25 20 c-24 20 -40 26 -40
16z"/>
<path d="M5293 3063 c7 -7 139 -5 146 3 2 2 -31 4 -74 4 -43 0 -75 -3 -72 -7z"/>
<path d="M1046 3035 c11 -48 25 -76 18 -35 -4 19 -10 42 -15 50 -6 10 -7 5 -3
-15z"/>
<path d="M2151 3059 c-1 -10 75 -210 122 -321 7 -16 15 -28 20 -28 4 0 1 13
-7 28 -28 54 -55 135 -49 145 3 6 1 7 -5 3 -7 -4 -12 -1 -12 9 0 20 -68 180
-69 164z"/>
<path d="M2541 3044 c0 -11 3 -14 6 -6 3 7 2 16 -1 19 -3 4 -6 -2 -5 -13z"/>
<path d="M4210 3051 c0 -10 19 -25 25 -20 1 2 -3 10 -11 17 -8 7 -14 8 -14 3z"/>
<path d="M4501 3034 c0 -11 3 -14 6 -6 3 7 2 16 -1 19 -3 4 -6 -2 -5 -13z"/>
<path d="M7481 3033 c-1 -12 -7 -24 -13 -26 -10 -4 -10 -6 0 -6 15 -1 26 23
19 41 -3 7 -6 3 -6 -9z"/>
<path d="M2436 2984 c-9 -26 -14 -50 -11 -52 2 -3 6 1 9 9 2 8 9 29 15 48 17
53 5 48 -13 -5z"/>
<path d="M4176 3022 c-2 -4 4 -8 14 -8 10 0 16 4 14 8 -3 4 -9 8 -14 8 -5 0
-11 -4 -14 -8z"/>
<path d="M4506 2945 c26 -49 53 -97 61 -105 8 -8 -6 24 -31 71 -25 47 -44 89
-41 92 3 4 2 5 -2 2 -3 -3 -12 3 -20 13 -7 9 8 -23 33 -73z"/>
<path d="M5106 3015 c-3 -9 -6 -22 -5 -28 0 -7 5 -1 10 12 5 13 8 26 5 28 -2
2 -6 -3 -10 -12z"/>
<path d="M3590 3000 c0 -5 5 -10 11 -10 5 0 7 5 4 10 -3 6 -8 10 -11 10 -2 0
-4 -4 -4 -10z"/>
<path d="M4555 3000 c-3 -6 1 -7 9 -4 18 7 21 14 7 14 -6 0 -13 -4 -16 -10z"/>
<path d="M7150 3006 c0 -2 7 -7 16 -10 8 -3 12 -2 9 4 -6 10 -25 14 -25 6z"/>
<path d="M9080 3006 c0 -2 8 -10 18 -17 15 -13 16 -12 3 4 -13 16 -21 21 -21
13z"/>
<path d="M3630 2991 c0 -5 5 -13 10 -16 6 -3 10 -2 10 4 0 5 -4 13 -10 16 -5
3 -10 2 -10 -4z"/>
<path d="M5218 2993 c12 -2 30 -2 40 0 9 3 -1 5 -23 4 -22 0 -30 -2 -17 -4z"/>
<path d="M5431 2993 l76 -4 13 -39 c7 -22 15 -38 17 -36 2 2 -2 22 -9 45 l-13
41 -80 -2 -80 -2 76 -3z"/>
<path d="M4215 2980 c-3 -6 1 -7 9 -4 18 7 21 14 7 14 -6 0 -13 -4 -16 -10z"/>
<path d="M4322 2970 c0 -14 2 -19 5 -12 2 6 2 18 0 25 -3 6 -5 1 -5 -13z"/>
<path d="M6763 2975 c0 -8 4 -12 9 -9 5 3 6 10 3 15 -9 13 -12 11 -12 -6z"/>
<path d="M8236 2881 c33 -62 71 -126 86 -142 26 -28 28 -29 129 -29 56 0 100
3 96 6 -3 4 -49 6 -101 5 -85 -2 -97 0 -113 19 -20 23 -69 108 -109 188 -15
29 -31 55 -37 59 -5 3 17 -45 49 -106z"/>
<path d="M8652 2933 c-1 -28 2 -54 7 -57 4 -3 6 -16 4 -30 -4 -17 4 -33 26
-57 17 -19 31 -29 31 -22 0 6 -9 18 -20 26 -11 8 -17 17 -13 20 3 4 1 7 -6 7
-7 0 -11 10 -10 23 1 12 -1 29 -4 37 -4 8 -8 35 -10 60 l-4 45 -1 -52z"/>
<path d="M7842 2924 c-1 -26 1 -44 4 -42 6 7 8 77 2 83 -3 3 -6 -15 -6 -41z"/>
<path d="M9110 2925 c0 -27 3 -45 7 -41 7 7 5 77 -2 85 -3 2 -5 -17 -5 -44z"/>
<path d="M1091 2920 c12 -22 24 -38 26 -36 4 4 -37 76 -44 76 -2 0 6 -18 18
-40z"/>
<path d="M1746 2935 c-3 -9 -6 -22 -5 -28 0 -7 5 -1 10 12 5 13 8 26 5 28 -2
2 -6 -3 -10 -12z"/>
<path d="M6590 2940 c8 -5 20 -10 25 -10 6 0 3 5 -5 10 -8 5 -19 10 -25 10 -5
0 -3 -5 5 -10z"/>
<path d="M4323 2905 c0 -22 2 -30 4 -17 2 12 2 30 0 40 -3 9 -5 -1 -4 -23z"/>
<path d="M9177 2929 c7 -7 15 -10 18 -7 3 3 -2 9 -12 12 -14 6 -15 5 -6 -5z"/>
<path d="M7581 2923 c-1 -6 -4 -20 -7 -30 -5 -17 -5 -17 6 0 6 10 9 23 6 30
-3 9 -5 9 -5 0z"/>
<path d="M5057 2885 c-24 -50 -20 -58 4 -12 11 22 19 41 17 43 -3 2 -12 -12
-21 -31z"/>
<path d="M6562 2904 c-7 -8 -8 -14 -3 -14 10 0 25 19 20 25 -2 1 -10 -3 -17
-11z"/>
<path d="M6720 2899 c0 -5 5 -7 10 -4 6 3 10 8 10 11 0 2 -4 4 -10 4 -5 0 -10
-5 -10 -11z"/>
<path d="M2338 2893 c7 -3 16 -2 19 1 4 3 -2 6 -13 5 -11 0 -14 -3 -6 -6z"/>
<path d="M5547 2880 c3 -11 9 -20 15 -20 5 0 4 9 -2 20 -6 11 -12 20 -14 20
-2 0 -2 -9 1 -20z"/>
<path d="M1726 2875 c-3 -8 -1 -15 4 -15 6 0 10 7 10 15 0 8 -2 15 -4 15 -2 0
-6 -7 -10 -15z"/>
<path d="M1130 2871 c0 -18 98 -97 153 -124 31 -15 78 -29 104 -32 l48 -4 -45
10 c-70 15 -162 65 -214 114 -25 25 -46 41 -46 36z"/>
<path d="M7150 2876 c0 -2 7 -7 16 -10 8 -3 12 -2 9 4 -6 10 -25 14 -25 6z"/>
<path d="M2330 2855 c-7 -9 -8 -15 -2 -15 5 0 12 7 16 15 3 8 4 15 2 15 -2 0
-9 -7 -16 -15z"/>
<path d="M7012 2833 c-1 -28 -8 -45 -19 -52 -10 -6 -13 -11 -7 -11 22 0 35 29
31 67 l-4 38 -1 -42z"/>
<path d="M9100 2859 c0 -5 5 -7 10 -4 6 3 10 8 10 11 0 2 -4 4 -10 4 -5 0 -10
-5 -10 -11z"/>
<path d="M6643 2832 c-23 -15 -42 -31 -43 -35 0 -10 27 6 65 37 39 33 30 32
-22 -2z"/>
<path d="M7120 2850 c0 -5 5 -10 11 -10 5 0 7 5 4 10 -3 6 -8 10 -11 10 -2 0
-4 -4 -4 -10z"/>
<path d="M7840 2826 c0 -19 -6 -37 -12 -39 -8 -3 -6 -6 5 -6 12 -1 17 7 17 28
0 16 5 31 12 33 7 3 6 7 -5 11 -14 5 -17 0 -17 -27z"/>
<path d="M9230 2850 c-9 -6 -10 -10 -3 -10 6 0 15 5 18 10 8 12 4 12 -15 0z"/>
<path d="M1205 2840 c-3 -5 -1 -10 4 -10 6 0 11 5 11 10 0 6 -2 10 -4 10 -3 0
-8 -4 -11 -10z"/>
<path d="M5560 2838 c0 -7 4 -19 9 -27 7 -10 9 -7 8 12 -2 26 -17 39 -17 15z"/>
<path d="M6603 2835 c0 -8 4 -12 9 -9 5 3 6 10 3 15 -9 13 -12 11 -12 -6z"/>
<path d="M1690 2830 c-9 -6 -10 -10 -3 -10 6 0 15 5 18 10 8 12 4 12 -15 0z"/>
<path d="M4150 2825 c0 -8 4 -15 10 -15 5 0 7 7 4 15 -4 8 -8 15 -10 15 -2 0
-4 -7 -4 -15z"/>
<path d="M6570 2830 c-9 -6 -10 -10 -3 -10 6 0 15 5 18 10 8 12 4 12 -15 0z"/>
<path d="M9069 2814 c-17 -18 -19 -23 -6 -18 9 3 17 10 17 16 0 5 4 7 8 4 5
-3 9 1 9 9 0 19 1 19 -28 -11z"/>
<path d="M3481 2814 c0 -11 3 -14 6 -6 3 7 2 16 -1 19 -3 4 -6 -2 -5 -13z"/>
<path d="M5027 2815 c-4 -8 -20 -23 -38 -34 -30 -18 -30 -19 -6 -18 14 1 23 5
20 10 -2 4 0 7 6 7 12 0 35 39 28 46 -2 3 -7 -2 -10 -11z"/>
<path d="M9199 2803 l-24 -28 28 24 c15 14 27 26 27 28 0 8 -8 1 -31 -24z"/>
<path d="M4591 2791 c6 -16 22 -39 36 -52 l26 -24 -26 36 c-15 20 -27 43 -27
52 0 10 -4 17 -9 17 -6 0 -6 -11 0 -29z"/>
<path d="M3590 2800 c0 -5 5 -10 11 -10 5 0 7 5 4 10 -3 6 -8 10 -11 10 -2 0
-4 -4 -4 -10z"/>
<path d="M7115 2800 c3 -5 8 -10 11 -10 2 0 4 5 4 10 0 6 -5 10 -11 10 -5 0
-7 -4 -4 -10z"/>
<path d="M7495 2800 c-3 -5 -2 -10 4 -10 5 0 13 5 16 10 3 6 2 10 -4 10 -5 0
-13 -4 -16 -10z"/>
<path d="M1746 2776 c2 -6 -10 -17 -26 -25 -17 -7 -29 -15 -27 -18 5 -4 87 34
87 41 0 2 -9 6 -19 9 -12 3 -18 0 -15 -7z"/>
<path d="M3460 2780 c-9 -6 -10 -10 -3 -10 6 0 15 5 18 10 8 12 4 12 -15 0z"/>
<path d="M4636 2782 c-3 -5 1 -9 9 -9 8 0 12 4 9 9 -3 4 -7 8 -9 8 -2 0 -6 -4
-9 -8z"/>
<path d="M5120 2780 c-9 -6 -10 -10 -3 -10 6 0 15 5 18 10 8 12 4 12 -15 0z"/>
<path d="M5996 2782 c-3 -5 1 -9 9 -9 8 0 12 4 9 9 -3 4 -7 8 -9 8 -2 0 -6 -4
-9 -8z"/>
<path d="M6560 2781 c-8 -6 -17 -8 -21 -5 -4 2 -12 -3 -19 -11 -7 -8 -9 -15
-4 -15 13 1 81 39 69 39 -5 1 -17 -3 -25 -8z"/>
<path d="M9110 2748 c-32 -16 -66 -27 -82 -25 -15 2 -25 0 -22 -5 3 -4 14 -8
24 -8 25 0 125 44 134 59 4 6 6 10 4 10 -2 -1 -28 -15 -58 -31z"/>
<path d="M5690 2760 c0 -5 5 -10 11 -10 5 0 7 5 4 10 -3 6 -8 10 -11 10 -2 0
-4 -4 -4 -10z"/>
<path d="M7910 2766 c0 -2 8 -10 18 -17 15 -13 16 -12 3 4 -13 16 -21 21 -21
13z"/>
<path d="M5485 2749 c-4 -6 -5 -12 -2 -15 2 -3 7 2 10 11 7 17 1 20 -8 4z"/>
<path d="M8744 2746 c11 -9 24 -16 30 -16 12 0 7 5 -24 19 -24 11 -24 11 -6
-3z"/>
<path d="M3394 2730 c1 -13 29 -15 185 -15 155 0 185 2 188 15 3 10 2 11 -4 4
-12 -16 -360 -17 -366 -1 -2 7 -3 5 -3 -3z"/>
<path d="M6210 2740 c0 -5 5 -10 11 -10 5 0 7 5 4 10 -3 6 -8 10 -11 10 -2 0
-4 -4 -4 -10z"/>
<path d="M6430 2737 c-25 -6 -38 -12 -30 -14 8 -2 35 3 60 11 53 16 35 19 -30
3z"/>
<path d="M4400 2729 c0 -4 -74 -7 -165 -7 -91 1 -168 -2 -172 -6 -4 -3 78 -5
182 -4 119 2 190 7 192 13 2 6 -6 11 -17 11 -11 0 -20 -4 -20 -7z"/>
<path d="M5715 2730 c-11 -5 -62 -9 -113 -8 -51 0 -96 -2 -99 -6 -4 -3 71 -6
165 -6 95 0 172 3 172 8 0 4 -25 5 -56 4 -39 -3 -54 -1 -50 7 8 13 8 13 -19 1z"/>
<path d="M7213 2733 c6 -10 -26 -12 -138 -12 -81 0 -149 -2 -152 -5 -4 -3 150
-6 340 -6 324 0 347 1 347 18 0 11 -3 13 -8 6 -10 -16 -361 -16 -381 0 -11 8
-13 8 -8 -1z"/>
<path d="M8792 2730 c6 -20 46 -28 138 -27 l75 0 -94 8 c-51 5 -100 14 -109
21 -13 11 -14 10 -10 -2z"/>
<path d="M1566 2719 c2 -4 -24 -7 -58 -8 -33 0 -64 -3 -67 -7 -9 -9 191 3 219
14 20 8 13 9 -36 8 -34 0 -60 -4 -58 -7z"/>
<path d="M2345 2720 c-3 -5 -1 -10 4 -10 6 0 11 5 11 10 0 6 -2 10 -4 10 -3 0
-8 -4 -11 -10z"/>
<path d="M2395 2720 c-16 -7 -17 -9 -3 -9 9 -1 20 4 23 9 7 11 7 11 -20 0z"/>
<path d="M4705 2719 c-37 -4 -21 -6 57 -7 59 -1 109 1 111 6 6 8 -98 9 -168 1z"/>
<path d="M5005 2719 c-52 -4 -34 -6 70 -6 142 -1 170 3 60 9 -33 2 -91 0 -130
-3z"/>
<path d="M5990 2719 c-36 -3 25 -6 135 -6 110 -1 211 2 225 6 30 8 -266 9
-360 0z"/>
<path d="M7757 2718 c2 -5 82 -8 178 -8 96 0 176 3 178 8 3 4 -77 7 -178 7
-101 0 -181 -3 -178 -7z"/>
</g>
</svg>
